<?xml version="1.0" encoding="utf-8"?>
<!-- Generator: Adobe Illustrator 17.0.0, SVG Export Plug-In . SVG Version: 6.00 Build 0)  -->
<!DOCTYPE svg PUBLIC "-//W3C//DTD SVG 1.1//EN" "http://www.w3.org/Graphics/SVG/1.1/DTD/svg11.dtd">
<svg version="1.1" id="Ebene_1" xmlns="http://www.w3.org/2000/svg" xmlns:xlink="http://www.w3.org/1999/xlink" x="0px" y="0px"
	 width="69.445px" height="47.14px" viewBox="0 0 69.445 47.14" enable-background="new 0 0 69.445 47.14" xml:space="preserve">
<g>
	<path d="M65.972,37.057H63.23c-0.105-0.464-0.232-0.78-0.422-0.949c-0.285-0.316-0.791-0.464-1.476-0.464
		c-0.696,0-1.16,0.105-1.434,0.348c-0.211,0.158-0.316,0.401-0.316,0.696c0,0.422,0.58,0.738,1.73,1.002
		c1.318,0.295,2.257,0.527,2.847,0.738c0.137,0.063,0.274,0.105,0.369,0.158c1.16,0.548,1.74,1.371,1.74,2.51
		c0,1.371-0.569,2.362-1.708,2.984c-0.137,0.084-0.274,0.148-0.422,0.211c-0.738,0.316-1.582,0.475-2.552,0.475
		c-1.424,0-2.584-0.243-3.48-0.738c-0.548-0.316-0.949-0.738-1.234-1.223c-0.274-0.496-0.422-1.055-0.422-1.719h2.89
		c0,0.506,0.19,0.896,0.527,1.16c0.359,0.274,0.949,0.422,1.793,0.422c0.654,0,1.128-0.137,1.445-0.401
		c0.243-0.211,0.359-0.443,0.359-0.707c0-0.443-0.569-0.801-1.708-1.055c-1.687-0.348-2.742-0.633-3.185-0.844
		c-1.16-0.548-1.74-1.392-1.74-2.552c0-0.928,0.285-1.719,0.896-2.362c0.759-0.823,1.898-1.213,3.417-1.213
		c1.234,0,2.236,0.179,2.985,0.527l0.179,0.105c0.527,0.285,0.949,0.675,1.223,1.16c0.274,0.485,0.422,1.055,0.422,1.74
		L65.972,37.057z M64.495,30.329c0-0.063,0-0.105-0.032-0.148s-0.074-0.074-0.127-0.105h-0.633v0.527h0.453
		c0.127-0.021,0.211-0.042,0.253-0.084C64.474,30.466,64.495,30.413,64.495,30.329L64.495,30.329z M64.727,30.044
		c0.053,0.074,0.084,0.158,0.084,0.253c0,0.127-0.042,0.243-0.148,0.337c-0.084,0.105-0.211,0.148-0.359,0.158
		c0.074,0.032,0.105,0.053,0.158,0.105l0.274,0.337l0.211,0.348h-0.348l-0.158-0.285c-0.105-0.179-0.19-0.316-0.264-0.38
		l-0.042-0.032l-0.232-0.063h-0.2v0.77H63.43v-1.793h0.738c0.137,0,0.253,0.032,0.316,0.063c0.105,0,0.179,0.074,0.243,0.158V30.044
		z"/>
	<path d="M65.539,30.687c0-0.243-0.063-0.475-0.19-0.696c-0.105-0.211-0.295-0.39-0.506-0.506c-0.211-0.105-0.453-0.179-0.675-0.179
		c-0.243,0-0.464,0.063-0.685,0.179c-0.232,0.105-0.422,0.295-0.527,0.506c-0.127,0.211-0.19,0.453-0.19,0.696
		c0,0.243,0.063,0.464,0.19,0.685c0.105,0.211,0.285,0.39,0.506,0.527c0.211,0.105,0.443,0.169,0.685,0.169
		c0.243,0,0.475-0.063,0.696-0.179c0.211-0.137,0.38-0.316,0.485-0.527c0.127-0.211,0.19-0.422,0.19-0.675H65.539z M65.814,30.687
		c0,0.274-0.074,0.548-0.211,0.823c-0.158,0.264-0.359,0.464-0.633,0.601c-0.253,0.169-0.527,0.232-0.801,0.232
		c-0.295,0-0.569-0.063-0.844-0.211c-0.253-0.148-0.453-0.348-0.591-0.612c-0.148-0.253-0.211-0.527-0.211-0.823
		c0-0.295,0.053-0.569,0.211-0.844c0.148-0.253,0.348-0.453,0.612-0.601c0.264-0.148,0.527-0.211,0.812-0.211
		c0.285,0,0.548,0.063,0.812,0.211c0.274,0.137,0.475,0.337,0.633,0.601c0.137,0.264,0.211,0.527,0.211,0.844L65.814,30.687z
		 M49.636,17.262l7.804,13.003H44.89l-7.445-12.423l-5.642-9.386l5.642-3.417l3.554-2.12l8.648,14.342H49.636z M55.299,39.272v5.347
		h-2.594v-0.601c-0.907,0.601-1.962,0.917-3.037,0.917h-0.042c-3.101-0.021-5.621-2.552-5.621-5.653c0-3.079,2.531-5.61,5.621-5.632
		h0.032c1.107,0,2.151,0.337,3.027,0.907v-0.633h2.594v5.378L55.299,39.272z M52.705,39.873v-1.16
		c-0.274-1.445-1.54-2.531-3.037-2.531h-0.042c-1.687,0.021-3.079,1.403-3.079,3.101c0,1.719,1.371,3.101,3.079,3.122h0.032
		c1.476,0,2.742-1.086,3.027-2.531H52.705z M43.108,39.282v5.347h-2.594v-0.612c-0.865,0.58-1.898,0.917-3.027,0.917h-0.032
		c-3.101-0.021-5.621-2.552-5.621-5.653c0-3.079,2.531-5.61,5.621-5.632h0.032c1.118,0,2.162,0.337,3.037,0.907v-4.282h2.615v8.996
		L43.108,39.282z M40.514,39.883v-1.16c-0.264-1.445-1.529-2.531-3.027-2.531h-0.032c-1.687,0.021-3.079,1.403-3.079,3.101
		c0,1.719,1.371,3.101,3.079,3.122h0.032c1.498,0,2.763-1.086,3.037-2.531H40.514z M37.445,25.14l3.058,5.125H27.975l-6.96-11.579
		l-0.316-0.506L21.014,18l8.911-5.357L37.445,25.14z M27.985,33.64h2.816v10.968h-2.816V33.64z M27.985,30.318h2.816v2.489h-2.816
		v-2.499V30.318z M26.688,39.272v5.347h-2.594v-0.601c-0.886,0.58-1.93,0.917-3.058,0.917h-0.021
		c-3.101-0.021-5.621-2.552-5.621-5.653c0-3.079,2.51-5.61,5.61-5.632h0.032c1.118,0,2.162,0.337,3.058,0.907v-4.282h2.594V39.272z
		 M24.094,39.873v-1.16c-0.274-1.445-1.54-2.531-3.058-2.531h-0.021c-1.687,0.021-3.079,1.403-3.079,3.101
		c0,1.719,1.371,3.101,3.079,3.122h0.032c1.508,0,2.774-1.086,3.058-2.531H24.094z M21.014,25.984l2.573,4.282h-12.55l-1.403-2.352
		l9.217-5.526l2.162,3.586V25.984z M14.371,39.272v5.347h-2.573v-0.601c-0.886,0.58-1.93,0.917-3.058,0.917H8.718
		c-3.101-0.021-5.621-2.552-5.621-5.663c0-3.079,2.531-5.61,5.61-5.632h0.021c1.128,0,2.172,0.337,3.058,0.907v-0.633h2.594v5.378
		L14.371,39.272z M11.787,39.873v-1.16c-0.274-1.445-1.54-2.531-3.058-2.531H8.707c-1.687,0.021-3.079,1.403-3.079,3.101
		c0,1.719,1.371,3.101,3.079,3.122h0.021C10.247,42.404,11.513,41.317,11.787,39.873z"/>
</g>
</svg>
