<?xml version="1.0" encoding="utf-8"?>
<!-- Generator: Adobe Illustrator 17.0.0, SVG Export Plug-In . SVG Version: 6.00 Build 0)  -->
<!DOCTYPE svg PUBLIC "-//W3C//DTD SVG 1.1//EN" "http://www.w3.org/Graphics/SVG/1.1/DTD/svg11.dtd">
<svg version="1.1" id="Ebene_1" xmlns="http://www.w3.org/2000/svg" xmlns:xlink="http://www.w3.org/1999/xlink" x="0px" y="0px"
	 width="69.445px" height="33.14px" viewBox="0 0 69.445 33.14" enable-background="new 0 0 69.445 33.14" xml:space="preserve">
<g>
	<path d="M13.398,1.665c4.2,1.119,6.923,4.615,6.923,8.965v11.826c0,1.985,0.854,3.427,2.7,4.269
		c0.162,0.069,0.346,0.312,0.346,0.462v4.731c-1.65-0.15-3.034-0.785-4.315-1.696c-2.365-1.685-3.438-4.084-3.761-6.888
		c-0.115-0.946-0.185-1.904-0.415-2.827c-0.577-2.192-2.215-3.173-4.731-2.908c-1.904,0.208-3.577,1.961-3.692,3.9
		c-0.115,2.538,1.661,4.615,4.269,4.788c1.235,0.069,2.504,0,3.808,0v5.077c-6.057,0.577-10.961-0.808-12.853-7.419
		c-1.442-5.077,2.573-10.73,7.811-11.376c1.938-0.231,3.577,0.288,5.146,1.327l0.485,0.323c0-1.615,0.162-3.231-0.046-4.788
		c-0.196-1.615-1.869-2.838-3.692-3c-0.635-0.069-1.292-0.081-1.961-0.115H7.445V1.239c1.361,0,4.004-0.081,5.954,0.438
		 M56.02,1.239v5.077c-3.6,0.092-6.496,1.569-8.538,4.558c-1.269,1.811-1.788,3.854-1.661,6.023
		c0.173,2.977,1.385,5.481,3.658,7.442c2.25,1.938,4.892,2.688,7.846,2.538v5.007c-1.535,0.115-3.069,0.046-4.546-0.346
		c-6.577-1.777-10.673-6-11.815-12.669c-1.5-8.953,4.661-16.615,13.269-17.492c0.173-0.023,1.35-0.138,1.777-0.138"/>
	<path d="M67.361,1.239v5.157c-1.038,0-2.077-0.069-3.115,0c-1.615,0.138-3.034,0.658-3.611,2.365
		c-0.669,1.961-0.231,3.692,1.269,4.927c1.061,0.877,2.25,1.615,3.265,2.538c2.804,2.585,3.323,5.85,2.273,9.346
		c-1.038,3.461-3.427,5.573-7.038,6.184c-0.392,0.058-0.785,0.115-1.235,0.162v-5.042c0.138-0.035,0.312-0.115,0.485-0.138
		c1.592-0.277,2.585-1.223,3-2.769c0.427-1.569,0.231-3-1.073-4.131c-0.646-0.577-1.385-1.038-2.077-1.535
		c-4.2-2.954-5.492-8.192-3.046-12.576c1.5-2.688,3.923-3.923,6.877-4.338c0.808-0.115,2.885-0.115,4.038-0.115V1.25L67.361,1.239z
		 M33.347,1.239v5.077c-0.392,0-0.773-0.023-1.154,0c-0.923,0.058-1.881,0.035-2.769,0.231c-2.931,0.612-4.131,4.084-2.215,6.381
		c0.612,0.762,1.431,1.35,2.227,1.915c1.5,1.073,2.884,2.227,3.658,3.946c2.238,4.892-0.15,12.011-6.877,13.049
		c-0.323,0.069-0.646,0.058-1.038,0.081v-4.996c0.346-0.092,0.715-0.15,1.061-0.265c2.538-0.808,3.508-4.5,1.661-6.461
		c-0.577-0.6-1.304-1.096-2.019-1.581c-1.927-1.327-3.634-2.838-4.211-5.192c-0.808-3.346-0.519-6.507,1.846-9.196
		c1.523-1.731,3.542-2.538,5.769-2.827c1.015-0.115,2.908-0.115,4.038-0.115V1.262L33.347,1.239z M40.062,1.239
		c0,1.465-0.058,2.931-0.023,4.384c0.023,0.635-0.196,0.785-0.808,0.773c-1.385-0.046-2.769-0.023-4.211-0.023V1.239H40.062z
		 M35.02,31.433V8.011h5.007v22.614c0,0.646-0.162,0.842-0.808,0.808C37.836,31.399,36.474,31.433,35.02,31.433z"/>
</g>
</svg>
