<?xml version="1.0" encoding="utf-8"?>
<!-- Generator: Adobe Illustrator 17.0.0, SVG Export Plug-In . SVG Version: 6.00 Build 0)  -->
<!DOCTYPE svg PUBLIC "-//W3C//DTD SVG 1.1//EN" "http://www.w3.org/Graphics/SVG/1.1/DTD/svg11.dtd">
<svg version="1.1" id="Ebene_1" xmlns="http://www.w3.org/2000/svg" xmlns:xlink="http://www.w3.org/1999/xlink" x="0px" y="0px"
	 width="841.89px" height="595.28px" viewBox="0 0 841.89 595.28" enable-background="new 0 0 841.89 595.28" xml:space="preserve">
<g id="g3279" transform="matrix(1.25,0,0,-1.25,-519.75675,720.95776)">
	<g id="g3357" transform="matrix(6.7041159,0,0,6.7041159,817.20404,392.90607)">
		<path id="path3359" d="M-9.47-16.989c-0.389-0.335-0.937-0.555-1.427-0.557
			c-0.619-0.002-1.147,0.343-1.15,1.238c-0.008,2.224,3.018,4.219,5.035,4.203C-7.458-13.849-7.803-15.549-9.47-16.989
			 M28.532-17.218c-2.897,0.829-4.387,2.663-4.968,4.32c0.948,0.797,2.126,1.501,3.28,2.266c0.672,0.445,0.857,0.902,1.126,1.609
			c0.327,0.852,0.652,2.057,0.67,2.66c0.012,0.439-0.021,0.778-0.579,0.759c-0.539-0.018-2.409-1.229-2.867-1.541
			c-2.557-1.743-4.736-3.87-6.62-6.32c0.852,3.449,1.825,8.538,2.242,11.119c0.135,0.833,0.358,1.968-0.103,2.738
			c-0.354,0.591-1.352,1.755-2.137,2.2c-0.751,0.425-1.138-0.079-1.277-0.762c-0.503-2.487-0.786-3.858-1.201-5.892
			c-0.588-2.893-1.114-5.199-2.42-8.438c-0.736-1.824-2.395-5.044-4.264-5.05c-1.822-0.007-1.168,4.412-1.171,5.607
			c-0.002,0.425-0.07,1.459-1.074,1.685C3.809-9.501,3.303-8.41,2.639-8.528C2.226-8.601,1.984-8.98,1.815-9.539
			c-0.667-2.223-1.036-4.225-2.344-6.208c-0.607-0.922-1.731-2.013-2.592-2.016c-0.866-0.002-1.16,0.77-1.16,1.543
			c0,2.17,0.604,4.38,0.88,5.621c0.204,0.924-0.292,1.088-0.77,1.227C-4.784-9.194-5.547-9.169-5.83-9.17
			c-2.605-0.008-5.02-0.846-7.034-2.499c-0.843-0.691-1.518-1.535-2.212-2.37c-0.764-0.918-3.022-3.7-4.374-3.705
			c-0.939-0.003-1.043,1.059-1.045,1.784c-0.012,3.21,1.544,8.102,2.691,11.03c0.761,1.947,1.568,3.707,1.816,4.745
			c0.204,0.857-0.024,1.62-0.496,2.258c-0.632,0.855-1.334,1.454-1.967,1.745c-0.446,0.204-0.878,0.084-1.179-0.343
			c-0.497-0.701-1.147-2.125-1.405-2.683c-2.01-4.359-3.521-9.444-3.504-14.264c0.009-2.584,0.298-7.315,3.835-7.302
			c1.95,0.007,3.653,1.19,4.897,2.612c0.243-1.673,1.57-2.619,3.413-2.612c2.032,0.007,3.881,1.169,5.121,2.71
			c0.404-1.703,1.74-2.716,3.479-2.71c4.183,0.014,6.665,4.617,7.776,8.063c0.132-0.086,0.353-0.145,0.353-0.145
			c-0.031-0.399-0.059-1.004-0.058-1.48c0.004-2.708,0.648-6.451,4.175-6.438c3.009,0.01,4.945,2.801,6.331,5.108h0.084
			c-0.243-1.57-0.564-2.84-0.67-4.443c-0.046-0.689,0.933-0.627,1.369-0.627c2.15,0,2.06,0.511,2.635,2.344
			c0.377,1.201,1.28,2.098,2.178,2.933c0.454-0.966,1.462-2.605,2.951-3.855c0.916-0.771,2.204-1.434,3.327-1.431
			c0.487,0.002,0.73,0.065,1.1,0.353c0.774,0.601,1.381,1.883,1.454,2.342C29.278-17.614,28.912-17.326,28.532-17.218"/>
	</g>
	<g id="g3361" transform="matrix(6.7041159,0,0,6.7041159,1215.3447,410.57946)">
		<path id="path3363" d="M-19.705-17.443c0.127-2.01-1.386-3.482-3.423-4.583
			c-2.138-1.156-4.605-1.769-6.448-1.608c-0.393,0.034-0.65,0.308-0.564,0.889c0.079,0.543,0.261,1.025,0.464,1.419
			c0.282,0.548,0.691,0.92,1.485,1.01c0.495,0.055,1.508,0.077,2.36,0.342c0.992,0.308,2.034,0.776,2.034,1.606
			c0,1.471-6.464,0.634-6.464,3.52c0,2.929,4.824,4.304,6.699,4.83c0.843,0.237,1.813,0.363,2.186,0.363
			c0.452,0,0.643-0.294,0.559-0.689c-0.187-0.876-0.588-1.948-1.559-2.192c-0.43-0.108-2.72-0.564-3.474-0.93
			c-0.234-0.113-0.367-0.275-0.366-0.438c0.001-0.206,0.249-0.325,0.66-0.431C-23.892-14.763-19.862-14.98-19.705-17.443"/>
	</g>
	<g id="g3365" transform="matrix(6.7041159,0,0,6.7041159,686.95112,362.95409)">
		<path id="path3367" d="M-6.121-16.219c-0.651,0-1.268,0.079-1.913,0.163
			c-2.255,0.291-4.323,0.458-6.369,0.458c-4.171,0-7.431-0.399-11.119-0.958c-2.883-0.436-5.313-0.744-7.553-0.813
			c-3.162-0.096-6.471,0.538-6.471,4.395c0,4.522,5.008,10.096,9.728,13.875c4.567,3.657,9.592,6.249,12.841,7.558
			c2.167,0.874,4.817,1.669,6.468,1.669c1.592,0,1.342-1.405,0.173-3.412c-1.101-1.89-1.595-2.373-3.134-2.566
			c-2.674-0.337-6.507-0.661-13.791-6.229c-4.147-3.169-7.913-7.557-7.848-9.818c0.041-1.433,1.106-1.892,2.407-1.892
			c1.91,0,4.075,0.409,6.812,0.907c4.293,0.782,9.641,1.89,14.142,1.89c1.212,0,2.35-0.131,3.377-0.394
			c0.789-0.203,1.294-0.658,1.807-1.33c0.418-0.547,0.786-1.18,1.07-1.757c0.257-0.526,0.475-1.054,0.31-1.39
			C-5.293-16.081-5.544-16.219-6.121-16.219"/>
	</g>
</g>
</svg>
