<?xml version="1.0" encoding="utf-8"?>
<!-- Generator: Adobe Illustrator 17.0.0, SVG Export Plug-In . SVG Version: 6.00 Build 0)  -->
<!DOCTYPE svg PUBLIC "-//W3C//DTD SVG 1.1//EN" "http://www.w3.org/Graphics/SVG/1.1/DTD/svg11.dtd">
<svg version="1.1" id="Ebene_1" xmlns="http://www.w3.org/2000/svg" xmlns:xlink="http://www.w3.org/1999/xlink" x="0px" y="0px"
	 width="69.445px" height="12.14px" viewBox="0 0 69.445 12.14" enable-background="new 0 0 69.445 12.14" xml:space="preserve">
<path d="M15.638,1.557h-5.33c-0.931,0-1.686,0.754-1.686,1.684v5.754c0,0.93,0.755,1.684,1.686,1.684h5.33
	c0.931,0,1.686-0.754,1.686-1.684V3.241C17.324,2.311,16.569,1.557,15.638,1.557z M14.749,6.859l1.21,3.567l-2.888-2.242
	l-2.79,2.222l1.112-3.47L8.817,4.987h3.2l1.015-3.177l1.073,3.177h3.005L14.749,6.859z"/>
<path d="M36.353,10.598c-1.086,0-1.967-0.88-1.967-1.965v-5.03c0-1.085,0.881-1.965,1.967-1.965h4.862v2.41h-4.234v0.864h4.234
	v2.411h-4.234v0.864h4.234v2.411L36.353,10.598z"/>
<path d="M25.505,3.603c0-1.085-0.881-1.965-1.967-1.965h-5.363v8.96h2.595v-6.55h2.14v6.55h2.595L25.505,3.603z"/>
<path d="M3.12,10.598c-1.086,0-1.967-0.88-1.967-1.965V3.603c0-1.085,0.881-1.965,1.967-1.965h4.772v2.411H3.748v4.139h4.143v2.411
	L3.12,10.598L3.12,10.598z"/>
<polygon points="25.393,1.638 28.079,1.638 29.855,7.096 31.676,1.638 34.362,1.638 31.357,10.598 28.352,10.598 "/>
<path d="M55.619,10.598c1.086,0,1.967-0.88,1.967-1.965V6.878c0-1.085-0.881-1.965-1.967-1.965l-2.723,0V4.048h4.371v-2.41h-4.999
	c-1.086,0-1.967,0.88-1.967,1.965v1.755c0,1.085,0.881,1.965,1.967,1.965h2.768v0.864h-4.735v2.411L55.619,10.598z"/>
<path d="M65.19,10.598l-4.862,0c-1.086,0-1.967-0.88-1.967-1.965v-5.03c0-1.085,0.881-1.965,1.967-1.965h4.862v2.41h-4.234v0.864
	h4.234v2.411h-4.234v0.864h4.234V10.598z"/>
<path d="M48.119,7.196c0.743-0.281,1.271-0.998,1.271-1.838V3.603c0-1.085-0.881-1.965-1.967-1.965h-5.272v8.96h2.595V5.504
	l2.322,5.094h2.641L48.119,7.196z M46.885,4.906h-2.14V4.042h2.14V4.906z"/>
<path d="M67.365,5.49c-0.173-0.172-0.382-0.258-0.628-0.258c-0.244,0-0.452,0.086-0.624,0.258c-0.173,0.173-0.26,0.381-0.26,0.625
	c0,0.246,0.086,0.456,0.257,0.628c0.172,0.174,0.381,0.26,0.627,0.26s0.455-0.087,0.628-0.26c0.173-0.174,0.26-0.383,0.26-0.628
	C67.625,5.87,67.538,5.662,67.365,5.49z M67.277,6.658c-0.148,0.15-0.328,0.224-0.54,0.224c-0.212,0-0.392-0.075-0.54-0.224
	c-0.147-0.15-0.221-0.33-0.221-0.543c0-0.211,0.074-0.39,0.222-0.539c0.149-0.15,0.328-0.224,0.538-0.224
	c0.211,0,0.391,0.075,0.54,0.224c0.148,0.149,0.222,0.328,0.222,0.539C67.499,6.327,67.425,6.508,67.277,6.658z"/>
<path d="M67.132,6.592c-0.004-0.008-0.007-0.025-0.008-0.051c-0.002-0.026-0.002-0.05-0.002-0.072V6.398
	c0-0.049-0.018-0.099-0.053-0.151c-0.035-0.051-0.091-0.083-0.168-0.095c0.06-0.01,0.107-0.025,0.141-0.047
	C67.105,6.064,67.137,6,67.137,5.913c0-0.122-0.05-0.204-0.151-0.246c-0.056-0.023-0.145-0.035-0.266-0.035h-0.34v0.972h0.172V6.221
	h0.135c0.091,0,0.154,0.01,0.191,0.031c0.061,0.036,0.092,0.111,0.092,0.223v0.077l0.004,0.031c0.001,0.004,0.002,0.008,0.002,0.011
	c0.001,0.003,0.002,0.006,0.002,0.01h0.161L67.132,6.592z M66.869,6.079C66.833,6.093,66.778,6.1,66.706,6.1h-0.154V5.748h0.146
	c0.095,0,0.164,0.012,0.207,0.036c0.043,0.024,0.065,0.072,0.065,0.142C66.969,6.001,66.936,6.052,66.869,6.079z"/>
</svg>
