<?xml version="1.0" encoding="utf-8"?>
<!-- Generator: Adobe Illustrator 17.0.0, SVG Export Plug-In . SVG Version: 6.00 Build 0)  -->
<!DOCTYPE svg PUBLIC "-//W3C//DTD SVG 1.1//EN" "http://www.w3.org/Graphics/SVG/1.1/DTD/svg11.dtd">
<svg version="1.1" id="Ebene_1" xmlns="http://www.w3.org/2000/svg" xmlns:xlink="http://www.w3.org/1999/xlink" x="0px" y="0px"
	 width="69.445px" height="25.64px" viewBox="0 0 69.445 25.64" enable-background="new 0 0 69.445 25.64" xml:space="preserve">
<g>
	<path d="M47.068,24.079c3.152,0,5.697-2.533,5.708-5.674c0.056-3.13-2.477-5.697-5.629-5.742c-3.152,0-5.719,2.544-5.742,5.685
		c0,3.186,2.533,5.719,5.685,5.742L47.068,24.079z"/>
	<path d="M47.135,12.641H46.64l-0.225,0.034l-0.248,0.034l-0.203,0.023l-0.225,0.056l-0.225,0.056l-0.225,0.079l-0.225,0.056
		l-0.203,0.09l-0.191,0.068l-0.191,0.09l-0.191,0.113l-0.191,0.113l-0.203,0.113l-0.191,0.113l-0.18,0.135l-0.18,0.158l-0.158,0.146
		l-0.158,0.146l-0.146,0.146l-0.169,0.158l-0.146,0.169l-0.113,0.169l-0.146,0.18l-0.113,0.18l-0.135,0.18l-0.113,0.18l-0.079,0.203
		l-0.09,0.225l-0.09,0.203l-0.079,0.203l-0.079,0.225l-0.056,0.225l-0.068,0.225l-0.045,0.225l-0.023,0.225l-0.023,0.225v0.248
		l-0.023,0.248v0.225l0.023,0.225l0.023,0.225l0.023,0.248l0.045,0.225l0.056,0.225l0.045,0.225l0.09,0.203l0.068,0.225l0.09,0.191
		l0.09,0.203l0.113,0.225l0.113,0.18l0.113,0.225l0.113,0.158l0.113,0.18l0.113,0.169l0.158,0.169l0.146,0.158v0.034l0.158,0.146
		l0.18,0.158l0.169,0.146l0.18,0.113l0.18,0.158l0.18,0.113l0.191,0.135l0.191,0.113l0.203,0.113l0.203,0.09l0.203,0.113
		l0.225,0.079l0.191,0.068l0.225,0.068l0.225,0.045l0.225,0.045l0.203,0.045L46.415,24l0.225,0.023l0.225,0.023h0.721L47.811,24
		l0.225-0.023l0.225-0.045l0.225-0.045l0.225-0.045l0.203-0.068h0.034l0.203-0.056l0.191-0.079l0.225-0.079l0.18-0.09l0.169-0.113
		l0.203-0.113l0.191-0.113l0.18-0.113l0.191-0.135l0.169-0.158l0.158-0.146l0.158-0.158l0.158-0.158l0.113-0.158l0.158-0.169
		l0.113-0.191l0.158-0.169l0.113-0.18l0.135-0.191l0.09-0.203l0.113-0.203l0.09-0.203l0.079-0.225l0.079-0.203l0.068-0.225
		l0.068-0.225l0.068-0.225l0.034-0.225l0.045-0.225l0.023-0.248v-0.225l0.023-0.225v-0.236l-0.023-0.203l-0.023-0.248l-0.034-0.225
		l-0.034-0.225l-0.034-0.225l-0.068-0.225l-0.068-0.203l-0.079-0.225l-0.068-0.191l-0.113-0.225l-0.09-0.18l-0.113-0.203
		l-0.113-0.203l-0.113-0.18l-0.135-0.18l-0.113-0.191l-0.158-0.169l-0.146-0.169l-0.146-0.158l-0.158-0.146l-0.169-0.146
		l-0.158-0.146l-0.18-0.113l-0.191-0.113l-0.18-0.135l-0.18-0.113l-0.191-0.113l-0.203-0.113l-0.191-0.113l-0.203-0.056L48.993,12.9
		l-0.203-0.068h-0.023l-0.203-0.056L48.34,12.72l-0.225-0.034l-0.225-0.034l-0.225-0.023l-0.248-0.034l-0.225,0.045L47.135,12.641z
		 M27.276,15.185v-2.162c0-0.225,0.248-0.484,0.484-0.484c0.27,0,0.495,0.248,0.495,0.484l-0.023,10.582
		c0,0.27-0.225,0.473-0.495,0.473c-0.225,0-0.484-0.225-0.484-0.484v-2.162l-0.079,0.056c-1.036,1.576-2.814,2.567-4.807,2.567
		c-3.152,0-5.742-2.612-5.742-5.787c0-3.152,2.623-5.742,5.798-5.742c1.993,0,3.738,1.036,4.762,2.589l0.113,0.079L27.276,15.185z"
		/>
	<path d="M22.424,12.483h0.248l0.248,0.023l0.203,0.023l0.248,0.034l0.225,0.034l0.225,0.056l0.225,0.056l0.203,0.068l0.203,0.068
		l0.225,0.113l0.203,0.079l0.225,0.09l0.18,0.113l0.225,0.113l0.169,0.113l0.18,0.113l0.18,0.158h0.034l0.158,0.146l0.158,0.146
		l0.146,0.158l0.169,0.18l0.146,0.169l0.113,0.169l0.158,0.18l0.113,0.169v0.023v-2.139l0.034-0.068l0.023-0.056l0.034-0.056
		l0.045-0.068l0.034-0.068l0.056-0.056l0.056-0.034l0.056-0.034h0.056v-0.023h0.293l0.068,0.023l0.056,0.034l0.068,0.034
		l0.068,0.068l0.056,0.045l0.034,0.056l0.023,0.056l0.023,0.045v0.079l0.023,0.079v10.582l-0.034,0.068v0.068l-0.034,0.056
		l-0.023,0.068l-0.045,0.056l-0.034,0.056l-0.045,0.045l-0.056,0.034l-0.056,0.034l-0.056,0.034h-0.338l-0.045-0.023h-0.068
		l-0.045-0.045L27.4,23.989l-0.045-0.056l-0.023-0.056l-0.034-0.068l-0.023-0.056v-2.15l-0.113,0.113l-0.135,0.203l-0.135,0.191
		l-0.146,0.169l-0.158,0.146l-0.135,0.158l-0.169,0.146l-0.18,0.146l-0.18,0.113l-0.169,0.135l-0.18,0.113l-0.225,0.113
		l-0.203,0.135l-0.203,0.113l-0.203,0.068h-0.023l-0.225,0.09l-0.191,0.079l-0.225,0.079l-0.225,0.056L23.629,24l-0.225,0.034
		l-0.248,0.034h-1.238l-0.259-0.034l-0.225-0.023l-0.225-0.056l-0.225-0.045l-0.225-0.056l-0.225-0.068l-0.225-0.068l-0.203-0.079
		l-0.225-0.079l-0.203-0.113l-0.191-0.113l-0.203-0.113l-0.169-0.113l-0.18-0.113l-0.169-0.146l-0.158-0.146l-0.158-0.146h-0.034
		l-0.169-0.158l-0.146-0.146l-0.146-0.18l-0.135-0.158l-0.146-0.18l-0.113-0.18l-0.113-0.191l-0.135-0.191L17.2,20.972l-0.09-0.225
		l-0.09-0.191l-0.09-0.225l-0.079-0.225l-0.056-0.225l-0.056-0.203l-0.034-0.225l-0.056-0.225l-0.023-0.225v-0.259l-0.023-0.225
		v-0.743l0.045-0.248l0.056-0.203l0.034-0.248l0.045-0.225l0.068-0.225l0.068-0.225l0.068-0.203l0.068-0.203v-0.023l0.113-0.203
		l0.09-0.203l0.113-0.203l0.113-0.203l0.113-0.18l0.113-0.191l0.158-0.18l0.146-0.18l0.146-0.158l0.158-0.146l0.146-0.158
		l0.169-0.146l0.169-0.146l0.18-0.113l0.18-0.135l0.169-0.113l0.191-0.113l0.225-0.113l0.191-0.113l0.203-0.068l0.225-0.113
		l0.225-0.079l0.191-0.056l0.248-0.056l0.203-0.056l0.248-0.045l0.225-0.034l0.225-0.023h0.225l0.203,0.023L22.424,12.483z
		 M67.343,15.185v-2.162c0-0.225,0.225-0.484,0.484-0.484c0.27,0,0.495,0.248,0.495,0.484v10.582
		c-0.034,0.27-0.248,0.473-0.495,0.473c-0.281,0-0.518-0.225-0.518-0.484v-2.162l-0.068,0.056c-1.036,1.576-2.814,2.567-4.807,2.567
		c-3.197,0-5.742-2.612-5.742-5.787c0.023-3.152,2.612-5.742,5.798-5.742c1.981,0,3.738,1.036,4.762,2.589l0.09,0.079V15.185z"/>
	<path d="M62.491,12.483h0.248l0.225,0.023l0.225,0.023l0.259,0.034l0.191,0.034h0.023l0.225,0.056l0.203,0.056l0.225,0.068
		l0.203,0.068l0.225,0.113l0.225,0.079l0.191,0.09l0.191,0.113l0.191,0.113l0.191,0.113h0.023l0.169,0.113l0.191,0.158l0.191,0.146
		l0.158,0.146l0.169,0.158l0.146,0.18l0.146,0.169l0.135,0.169l0.113,0.18l0.135,0.169l0.023-2.026v-0.113l0.034-0.079V12.81
		l0.023-0.034l0.045-0.068l0.034-0.045l0.034-0.045l0.056-0.034h0.023l0.045-0.045h0.079v-0.023h0.27l0.068,0.023l0.056,0.034
		l0.068,0.034l0.056,0.056l0.045,0.045l0.034,0.056l0.045,0.056v0.045h0.023v10.808l-0.034,0.068v0.079h-0.023l-0.023,0.045
		l-0.045,0.045l-0.056,0.068l-0.045,0.034l-0.068,0.034l-0.056,0.034l-0.09,0.045h-0.315l-0.056-0.023h-0.079v-0.034l-0.056-0.034
		l-0.068-0.045l-0.045-0.045l-0.034-0.068l-0.034-0.056l-0.034-0.056l-0.034-0.068v-2.173l-0.113,0.146l-0.113,0.18l-0.135,0.191
		l-0.158,0.169l-0.146,0.146l-0.158,0.169l-0.158,0.146l-0.191,0.146l-0.18,0.135l-0.191,0.113l-0.191,0.113l-0.191,0.135
		l-0.203,0.113l-0.203,0.113l-0.225,0.079l-0.203,0.113l-0.203,0.056l-0.225,0.079l-0.248,0.056l-0.203,0.034L63.29,24l-0.225,0.034
		H62.84l-0.259,0.023h-0.495l-0.225-0.034L61.635,24l-0.225-0.023l-0.259-0.056l-0.225-0.045l-0.225-0.056l-0.203-0.09l-0.225-0.068
		l-0.191-0.079l-0.225-0.113l-0.203-0.09l-0.191-0.113l-0.203-0.113l-0.18-0.113l-0.191-0.113l-0.18-0.158l-0.18-0.146l-0.135-0.146
		l-0.158-0.169l-0.158-0.146l-0.146-0.169l-0.146-0.18l-0.113-0.18l-0.135-0.18l-0.113-0.191l-0.135-0.191l-0.113-0.203l-0.09-0.225
		l-0.09-0.191l-0.068-0.225l-0.09-0.225l-0.056-0.225l-0.068-0.203l-0.056-0.225l-0.034-0.248l-0.034-0.225l-0.045-0.225v-0.957
		l0.045-0.248l0.045-0.203l0.034-0.248l0.056-0.225l0.068-0.225l0.079-0.225l0.068-0.203l0.113-0.203v-0.034l0.079-0.191
		l0.113-0.203l0.113-0.203l0.113-0.203l0.135-0.18l0.113-0.191l0.113-0.18h0.034l0.113-0.169l0.169-0.158l0.158-0.146l0.158-0.158
		h0.023l0.158-0.135l0.169-0.146l0.169-0.113l0.191-0.135l0.158-0.113l0.191-0.135l0.225-0.079l0.191-0.113l0.203-0.079l0.225-0.079
		l0.203-0.113l0.225-0.045l0.225-0.068l0.225-0.045l0.225-0.045l0.248-0.045l0.225-0.023h0.248l0.191,0.045L62.491,12.483z
		 M15.027,4.862c0.225,0,0.45-0.203,0.45-0.484V2.464c0-0.27-0.191-0.473-0.473-0.473c-0.248,0-0.473,0.203-0.495,0.45L14.532,4.4
		c0,0.248,0.225,0.45,0.495,0.45V4.862z"/>
	<path d="M15.027,1.923h-0.146l-0.079,0.034l-0.056,0.045L14.69,2.036L14.633,2.07L14.6,2.126V2.16l-0.056,0.045v0.09L14.51,2.34
		v0.056l-0.023,0.079v2.026l0.023,0.045l0.023,0.068v0.068l0.056,0.034l0.034,0.068l0.045,0.045l0.056,0.045l0.068,0.045
		l0.068,0.023h0.27l0.056-0.034l0.068-0.034l0.056-0.034l0.045-0.034l0.023-0.056l0.045-0.056l0.034-0.068V2.351l-0.023-0.079
		l-0.034-0.045l-0.056-0.056l-0.034-0.045l-0.045-0.045l-0.068-0.034h-0.045V2.002h-0.056V1.98h-0.068l-0.045-0.023L15.027,1.923z
		 M15.005,24.068c0.259,0,0.484-0.225,0.484-0.495V13.046c0-0.27-0.225-0.495-0.495-0.495c-0.248,0-0.495,0.225-0.495,0.484v10.537
		c0,0.27,0.225,0.484,0.495,0.484L15.005,24.068z"/>
	<path d="M15.005,12.506H14.87v0.023h-0.068l-0.068,0.045l-0.056,0.045l-0.045,0.045l-0.045,0.056l-0.056,0.056l-0.023,0.056
		L14.487,12.9v10.841l0.034,0.056l0.023,0.068l0.056,0.068l0.034,0.045v0.034l0.045,0.034h0.034l0.045,0.034l0.056,0.023
		l0.068,0.045h0.293l0.056-0.034h0.068V24.09h0.056l0.045-0.056l0.045-0.056l0.034-0.056v-0.056l0.034-0.068V23.73l0.023-0.079
		V13.046l-0.023-0.056v-0.079h-0.023v-0.068l-0.045-0.056l-0.056-0.068l-0.045-0.056l-0.045-0.023l-0.056-0.034l-0.068-0.023
		l-0.056-0.023l-0.113-0.045L15.005,12.506z M54.723,12.596c0.281,0,0.484,0.225,0.484,0.495v1.351
		c1.441-2.814,4.391-4.683,7.734-4.672c0.248,0,0.495,0.225,0.495,0.473c0,0.27-0.248,0.495-0.495,0.495
		c-4.244-0.045-7.723,3.377-7.745,7.61v5.291c0,0.225-0.225,0.484-0.484,0.484c-0.248,0-0.45-0.248-0.45-0.495V13.08
		c0-0.281,0.191-0.495,0.473-0.495L54.723,12.596z"/>
	<path d="M54.723,12.551h0.146l0.068,0.034l0.068,0.023l0.034,0.034l0.068,0.034l0.023,0.045l0.034,0.068l0.034,0.056l0.045,0.079
		v1.238l0.034-0.034l0.113-0.248h0.034l0.113-0.225l0.169-0.225l0.169-0.203l0.169-0.225l0.158-0.203l0.203-0.225l0.18-0.203
		l0.203-0.18l0.203-0.169l0.191-0.18l0.225-0.158l0.191-0.169l0.225-0.158l0.225-0.146l0.225-0.146l0.225-0.146l0.225-0.113
		l0.248-0.113l0.225-0.135l0.259-0.113l0.248-0.113l0.225-0.113l0.281-0.079l0.27-0.079l0.27-0.079l0.27-0.056l0.27-0.034
		l0.281-0.045l0.27-0.045l0.27-0.045l0.293-0.023h0.675l0.068,0.023L63.2,9.793l0.056,0.023l0.056,0.056l0.045,0.045V9.95
		l0.045,0.045l0.056,0.068v0.417l-0.056,0.068l-0.023,0.068l-0.045,0.045l-0.056,0.023l-0.068,0.034l-0.068,0.056l-0.079,0.023
		h-0.394l-0.248,0.023h-0.281l-0.248,0.045l-0.259,0.045l-0.248,0.045l-0.27,0.045l-0.225,0.068l-0.248,0.068l-0.248,0.079
		l-0.225,0.079l-0.259,0.113l-0.225,0.113l-0.225,0.09l-0.225,0.113l-0.225,0.135l-0.203,0.113l-0.203,0.158l-0.225,0.146
		l-0.191,0.135l-0.191,0.158l-0.203,0.158l-0.169,0.169l-0.169,0.18L57.29,13.26l-0.18,0.18l-0.158,0.191l-0.146,0.203l-0.146,0.203
		l-0.113,0.225l-0.158,0.191l-0.113,0.248l-0.113,0.203l-0.135,0.225l-0.113,0.225l-0.079,0.225l-0.09,0.248l-0.09,0.248
		l-0.068,0.248l-0.068,0.225l-0.056,0.248l-0.045,0.248l-0.056,0.27l-0.034,0.225l-0.023,0.293l-0.023,0.27v5.685l-0.023,0.068
		l-0.023,0.056l-0.034,0.056l-0.045,0.068l-0.056,0.045l-0.045,0.023l-0.045,0.045l-0.068,0.023h-0.304l-0.068-0.023l-0.068-0.045
		l-0.045-0.034L54.397,24l-0.034-0.056l-0.045-0.045l-0.023-0.056v-0.068l-0.023-0.068V12.933l0.045-0.068l0.034-0.056l0.034-0.056
		l0.045-0.068l0.056-0.045l0.056-0.034l0.056-0.045l0.056-0.045h0.135L54.723,12.551z M39.637,15.185V1.518
		c0-0.259,0.259-0.484,0.495-0.484c0.27,0,0.495,0.225,0.495,0.484v22.088c0,0.248-0.225,0.45-0.495,0.45h-0.045
		c-0.27,0-0.484-0.203-0.484-0.473l0.034-2.162l-0.068,0.056c-1.058,1.542-2.814,2.556-4.841,2.556
		c-3.152,0-5.742-2.612-5.742-5.787c0.034-3.152,2.623-5.742,5.809-5.742c1.981,0,3.715,1.036,4.762,2.589l0.079,0.079h0.023
		L39.637,15.185z"/>
	<path d="M34.808,12.483h0.473l0.225,0.034l0.225,0.034l0.259,0.045l0.203,0.056l0.225,0.056l0.225,0.068l0.225,0.068l0.203,0.113
		l0.225,0.079l0.191,0.09l0.191,0.113l0.203,0.113l0.169,0.113l0.18,0.113l0.158,0.158l0.18,0.146l0.158,0.146h0.023l0.158,0.158
		l0.146,0.18l0.146,0.169l0.113,0.169l0.158,0.18l0.113,0.18V1.45l0.034-0.079l0.023-0.056l0.034-0.056l0.034-0.068l0.056-0.045
		l0.045-0.034l0.045-0.045l0.056-0.023l0.045-0.023L40.031,1h0.158l0.068,0.023h0.068v0.023l0.056,0.023l0.079,0.045l0.045,0.045
		l0.056,0.056l0.056,0.056l0.034,0.056v0.068h0.023v22.268l-0.023,0.079l-0.023,0.079v0.068l-0.056,0.045l-0.034,0.056v0.023
		l-0.045,0.034l-0.068,0.034l-0.056,0.034l-0.056,0.045h-0.338l-0.068-0.023l-0.068-0.034l-0.045-0.034l-0.056-0.056l-0.023-0.034
		l-0.045-0.056l-0.023-0.056l-0.023-0.079V23.73l-0.034-0.079v-2.004l-0.068,0.113l-0.113,0.203H39.39l-0.113,0.18L39.108,22.3
		l-0.158,0.146l-0.169,0.158l-0.158,0.158l-0.18,0.146l-0.169,0.113l-0.191,0.135l-0.191,0.113l-0.203,0.113l-0.18,0.113
		l-0.203,0.113l-0.225,0.09l-0.18,0.079l-0.225,0.079l-0.225,0.068l-0.225,0.068l-0.225,0.034l-0.225,0.034l-0.225,0.034h-0.248
		l-0.225,0.034h-0.484l-0.248-0.034l-0.225-0.023h-0.225l-0.225-0.056l-0.225-0.056l-0.225-0.056l-0.203-0.068l-0.225-0.09
		l-0.203-0.068l-0.225-0.113l-0.203-0.09l-0.203-0.113l-0.203-0.113l-0.18-0.113l-0.191-0.113l-0.169-0.158h-0.023l-0.158-0.146
		l-0.169-0.135l-0.135-0.158l-0.158-0.146l-0.158-0.158l-0.113-0.169l-0.146-0.18l-0.113-0.18l-0.135-0.18l-0.113-0.203
		l-0.113-0.203l-0.09-0.203l-0.09-0.225l-0.09-0.203l-0.079-0.225l-0.079-0.225L29.201,19.7l-0.045-0.203l-0.068-0.248l-0.034-0.225
		v-1.205l0.034-0.225l0.045-0.225l0.034-0.225l0.045-0.248l0.068-0.225l0.056-0.191l0.079-0.203l0.09-0.225l0.113-0.203l0.09-0.225
		l0.113-0.191l0.113-0.203l0.135-0.191l0.113-0.18l0.135-0.18l0.146-0.169l0.146-0.158l0.158-0.146l0.169-0.158l0.169-0.158
		l0.18-0.146l0.18-0.113l0.18-0.113l0.18-0.135l0.203-0.113l0.203-0.113l0.203-0.079l0.203-0.113l0.203-0.079l0.225-0.079
		l0.225-0.079l0.225-0.056l0.225-0.045l0.225-0.056l0.225-0.045l0.259-0.023h0.225l0.169-0.045L34.808,12.483z M11.695,15.185V1.518
		c0-0.259,0.225-0.484,0.484-0.484c0.27,0,0.484,0.225,0.484,0.484v22.088c0,0.248-0.225,0.45-0.484,0.45h-0.056
		c-0.259,0-0.484-0.203-0.484-0.473l0.023-2.162l-0.079,0.056c-1.047,1.542-2.814,2.556-4.841,2.556C3.589,24.034,1,21.422,1,18.247
		c0.045-3.152,2.634-5.742,5.809-5.742c1.959,0,3.715,1.036,4.751,2.589l0.079,0.079h0.023L11.695,15.185z"/>
	<path d="M6.832,12.483h0.473l0.248,0.034l0.225,0.034l0.225,0.045l0.248,0.056l0.203,0.056l0.225,0.068l0.203,0.068l0.225,0.113
		l0.203,0.079l0.191,0.09l0.203,0.113l0.191,0.113l0.18,0.113l0.191,0.113l0.18,0.158l0.18,0.146l0.146,0.146l0.146,0.158
		l0.158,0.18l0.146,0.169l0.146,0.169l0.113,0.18l0.135,0.169v0.023l0.023-13.51V1.372l0.034-0.056l0.034-0.056l0.034-0.068
		l0.034-0.045l0.056-0.034l0.056-0.045l0.056-0.023l0.079-0.023L12.089,1h0.135l0.079,0.023h0.045v0.023l0.079,0.023l0.045,0.045
		l0.056,0.045l0.056,0.056l0.034,0.056l0.023,0.056l0.023,0.068v22.347L12.63,23.82l-0.023,0.068l-0.056,0.045l-0.023,0.056v0.023
		l-0.045,0.034l-0.045,0.034h-0.034l-0.045,0.034l-0.079,0.045h-0.304l-0.045-0.023l-0.056-0.034l-0.056-0.034l-0.045-0.056
		l-0.034-0.034h-0.023l-0.045-0.056l-0.034-0.056l-0.023-0.079v-2.139l-0.113,0.113l-0.113,0.203l-0.146,0.18L11.087,22.3
		l-0.146,0.146l-0.169,0.169l-0.146,0.158l-0.18,0.146l-0.158,0.113l-0.203,0.135L9.894,23.28l-0.18,0.113l-0.203,0.113
		l-0.203,0.113l-0.225,0.09l-0.225,0.079l-0.203,0.079L8.43,23.933L8.205,24L7.98,24.034l-0.248,0.034l-0.225,0.034H7.282
		l-0.259,0.034H6.539l-0.225-0.034l-0.248-0.023H5.841l-0.225-0.056l-0.225-0.056L5.166,23.91L4.94,23.842l-0.203-0.09l-0.203-0.068
		L4.31,23.572l-0.191-0.09L3.916,23.37l-0.203-0.113l-0.18-0.113L3.33,23.032l-0.169-0.158l-0.18-0.146l-0.158-0.135l-0.113-0.225
		l-0.18-0.158l-0.146-0.169l-0.146-0.18l-0.113-0.18l-0.113-0.18l-0.135-0.191l-0.113-0.191l-0.135-0.203L1.552,20.69l-0.113-0.191
		l-0.068-0.225l-0.079-0.225l-0.056-0.225l-0.079-0.203l-0.045-0.225L1.09,19.148l-0.045-0.225l-0.023-0.225v-0.957l0.034-0.225
		l0.045-0.225l0.023-0.225l0.056-0.259l0.068-0.203l0.068-0.203l0.068-0.225l0.079-0.203v-0.023l0.09-0.203l0.113-0.203l0.113-0.203
		l0.113-0.203l0.135-0.18l0.113-0.191l0.135-0.18l0.146-0.18l0.158-0.135l0.135-0.113l0.158-0.169l0.169-0.146l0.169-0.146
		l0.191-0.113l0.18-0.113l0.18-0.113l0.191-0.135l0.225-0.113l0.191-0.079l0.225-0.09l0.191-0.09l0.248-0.079l0.203-0.068
		l0.225-0.045l0.225-0.045l0.225-0.056l0.225-0.034l0.248-0.023h0.248l0.259-0.023L6.832,12.483z M41.529,2.374L41.9,2.07
		c3.963,1.295,7.318,2.139,9.907-0.113l3.287,1.97c-1.801,0.979-2.927,1.351-4.807,1.61c2.105,1.407,4.03,3.085,4.695,4.999
		l-3.907-0.023c-1.205-3.94-5.381-6.62-9.535-8.151v0.023L41.529,2.374z"/>
	<path d="M41.9,2.013l0.281,0.09l0.225,0.09l0.281,0.09l0.248,0.068l0.27,0.09l0.259,0.068l0.259,0.079l0.248,0.068l0.248,0.056
		l0.225,0.09l0.259,0.056l0.248,0.079l0.248,0.045l0.225,0.068l0.225,0.045l0.259,0.023l0.225,0.045l0.225,0.045h0.225l0.248,0.045
		h0.203l0.248,0.034h0.428l0.225,0.045l0.203-0.034h0.428l0.203-0.034L48.97,3.24l0.203-0.034l0.203-0.056l0.225-0.045l0.191-0.068
		l0.191-0.056l0.18-0.056l0.203-0.09l0.191-0.113l0.18-0.068l0.191-0.113l0.18-0.113l0.18-0.113l0.169-0.113l0.18-0.191l0.203-0.18
		l3.344,1.993v0.045l-0.248,0.146L54.712,4.13l-0.225,0.113l-0.191,0.113l-0.18,0.068l-0.203,0.113L53.71,4.614l-0.18,0.079
		L53.327,4.76l-0.18,0.068l-0.18,0.09l-0.191,0.056l-0.169,0.068l-0.191,0.068l-0.18,0.045l-0.191,0.068l-0.191,0.056l-0.225,0.045
		l-0.18,0.056l-0.203,0.023l-0.225,0.034l-0.203,0.045l-0.248,0.034h-0.09l0.113,0.09l0.225,0.169l0.225,0.158l0.225,0.146
		l0.225,0.146l0.203,0.169l0.225,0.169l0.203,0.158l0.191,0.158l0.203,0.169l0.191,0.18l0.191,0.169l0.203,0.18l0.169,0.169
		l0.18,0.203l0.191,0.18l0.169,0.18l0.158,0.191l0.158,0.18l0.146,0.191l0.113,0.18l0.158,0.191v0.034l0.113,0.191l0.113,0.191
		l0.113,0.203l0.09,0.203l0.079,0.225l0.09,0.225v0.023h-4.03l-0.113-0.315l-0.09-0.248l-0.113-0.225l-0.113-0.281l-0.113-0.248
		l-0.113-0.225l-0.135-0.248L50.175,8.52l-0.158-0.225L49.871,8.07l-0.169-0.225L49.544,7.62l-0.158-0.225l-0.18-0.203l-0.203-0.191
		l-0.18-0.203l-0.18-0.225l-0.225-0.18l-0.191-0.225l-0.225-0.169l-0.203-0.191l-0.225-0.18l-0.248-0.191l-0.225-0.169l-0.248-0.169
		l-0.225-0.18l-0.259-0.18l-0.248-0.146l-0.225-0.158l-0.248-0.158l-0.27-0.146l-0.248-0.158L44.85,3.826l-0.225-0.113l-0.293-0.169
		l-0.259-0.113l-0.27-0.113l-0.27-0.158l-0.281-0.113L42.97,2.914L42.7,2.801l-0.281-0.113l-0.27-0.09l-0.259-0.113l-0.281-0.113
		H41.54V2.351l0.372-0.338H41.9z M47.079,24.079c3.13,0,5.685-2.533,5.697-5.674c0.056-3.13-2.477-5.697-5.629-5.742
		c-3.152,0-5.719,2.544-5.742,5.685c0,3.186,2.533,5.719,5.685,5.742L47.079,24.079z"/>
	<path d="M47.135,12.641H46.64l-0.225,0.034l-0.248,0.034l-0.203,0.023l-0.225,0.056l-0.225,0.056l-0.225,0.079l-0.225,0.056
		l-0.203,0.09l-0.191,0.068l-0.191,0.09l-0.191,0.113l-0.191,0.113l-0.203,0.113l-0.191,0.113l-0.18,0.135l-0.18,0.158l-0.158,0.146
		l-0.158,0.146l-0.146,0.146l-0.169,0.158l-0.146,0.169l-0.113,0.169l-0.146,0.18l-0.113,0.18l-0.135,0.18l-0.113,0.18l-0.079,0.203
		l-0.09,0.225l-0.09,0.203l-0.079,0.203l-0.079,0.225l-0.056,0.225l-0.068,0.225l-0.045,0.225l-0.023,0.225l-0.023,0.225v0.248
		l-0.023,0.248v0.225l0.023,0.225l0.023,0.225l0.023,0.248l0.045,0.225l0.056,0.225l0.045,0.225l0.09,0.203l0.068,0.225l0.09,0.191
		l0.09,0.203l0.113,0.225l0.113,0.18l0.113,0.225l0.113,0.158l0.113,0.18l0.113,0.169l0.158,0.169l0.146,0.158v0.034l0.158,0.146
		l0.18,0.158l0.169,0.146l0.18,0.113l0.18,0.158l0.18,0.113l0.191,0.135l0.191,0.113l0.203,0.113l0.203,0.09l0.203,0.113
		l0.225,0.079l0.191,0.068l0.225,0.068l0.225,0.045l0.225,0.045l0.203,0.045L46.415,24l0.225,0.023l0.225,0.023h0.721L47.811,24
		l0.225-0.023l0.225-0.045l0.225-0.045l0.225-0.045l0.203-0.068h0.034l0.203-0.056l0.191-0.079l0.225-0.079l0.18-0.09l0.169-0.113
		l0.203-0.113l0.191-0.113l0.18-0.113l0.191-0.135l0.169-0.158l0.158-0.146l0.158-0.158l0.158-0.158l0.113-0.158l0.158-0.169
		l0.113-0.191l0.158-0.169l0.113-0.18l0.135-0.191l0.09-0.203l0.113-0.203l0.09-0.203l0.079-0.225l0.079-0.203l0.068-0.225
		l0.068-0.225l0.068-0.225l0.034-0.225l0.045-0.225l0.023-0.248v-0.225l0.023-0.225v-0.236l-0.023-0.203l-0.023-0.248l-0.034-0.225
		l-0.034-0.225l-0.034-0.225l-0.068-0.225l-0.068-0.203l-0.079-0.225l-0.068-0.191l-0.113-0.225l-0.09-0.18l-0.113-0.203
		l-0.113-0.203l-0.113-0.18l-0.135-0.18l-0.113-0.191l-0.158-0.169l-0.146-0.169l-0.146-0.158l-0.158-0.146l-0.169-0.146
		l-0.158-0.146l-0.18-0.113l-0.191-0.113l-0.18-0.135l-0.18-0.113l-0.191-0.113l-0.203-0.113l-0.191-0.113l-0.203-0.056L48.993,12.9
		l-0.203-0.068h-0.023l-0.203-0.056L48.34,12.72l-0.225-0.034l-0.225-0.034l-0.225-0.023l-0.248-0.034l-0.225,0.045L47.135,12.641z
		 M27.276,15.185v-2.162c0-0.225,0.248-0.484,0.484-0.484c0.27,0,0.495,0.248,0.495,0.484l-0.023,10.582
		c0,0.27-0.225,0.473-0.495,0.473c-0.225,0-0.484-0.225-0.484-0.484v-2.162l-0.079,0.056c-1.036,1.576-2.814,2.567-4.807,2.567
		c-3.152,0-5.742-2.612-5.742-5.787c0-3.152,2.623-5.742,5.798-5.742c1.993,0,3.738,1.036,4.762,2.589l0.113,0.079L27.276,15.185z"
		/>
	<path d="M22.424,12.483h0.248l0.248,0.023l0.203,0.023l0.248,0.034l0.225,0.034l0.225,0.056l0.225,0.056l0.203,0.068l0.203,0.068
		l0.225,0.113l0.203,0.079l0.225,0.09l0.18,0.113l0.225,0.113l0.169,0.113l0.18,0.113l0.18,0.158h0.034l0.158,0.146l0.158,0.146
		l0.146,0.158l0.169,0.18l0.146,0.169l0.113,0.169l0.158,0.18l0.113,0.169v0.023v-2.139l0.034-0.068l0.023-0.056l0.034-0.056
		l0.045-0.068l0.034-0.068l0.056-0.056l0.056-0.034l0.056-0.034h0.056v-0.023h0.293l0.068,0.023l0.056,0.034l0.068,0.034
		l0.068,0.068l0.056,0.045l0.034,0.056l0.023,0.056l0.023,0.045v0.079l0.023,0.079v10.582l-0.034,0.068v0.068l-0.034,0.056
		l-0.023,0.068l-0.045,0.056l-0.034,0.056l-0.045,0.045l-0.056,0.034l-0.056,0.034l-0.056,0.034h-0.338l-0.045-0.023h-0.068
		l-0.045-0.045L27.4,23.989l-0.045-0.056l-0.023-0.056l-0.034-0.068l-0.023-0.056v-2.15l-0.113,0.113l-0.135,0.203l-0.135,0.191
		l-0.146,0.169l-0.158,0.146l-0.135,0.158l-0.169,0.146l-0.18,0.146l-0.18,0.113l-0.169,0.135l-0.18,0.113l-0.225,0.113
		l-0.203,0.135l-0.203,0.113l-0.203,0.068h-0.023l-0.225,0.09l-0.191,0.079l-0.225,0.079l-0.225,0.056L23.629,24l-0.225,0.034
		l-0.248,0.034h-1.238l-0.259-0.034l-0.225-0.023l-0.225-0.056l-0.225-0.045l-0.225-0.056l-0.225-0.068l-0.225-0.068l-0.203-0.079
		l-0.225-0.079l-0.203-0.113l-0.191-0.113l-0.203-0.113l-0.169-0.113l-0.18-0.113l-0.169-0.146l-0.158-0.146l-0.158-0.146h-0.034
		l-0.169-0.158l-0.146-0.146l-0.146-0.18l-0.135-0.158l-0.146-0.18l-0.113-0.18l-0.113-0.191l-0.135-0.191L17.2,20.972l-0.09-0.225
		l-0.09-0.191l-0.09-0.225l-0.079-0.225l-0.056-0.225l-0.056-0.203l-0.034-0.225l-0.056-0.225l-0.023-0.225v-0.259l-0.023-0.225
		v-0.743l0.045-0.248l0.056-0.203l0.034-0.248l0.045-0.225l0.068-0.225l0.068-0.225l0.068-0.203l0.068-0.203v-0.023l0.113-0.203
		l0.09-0.203l0.113-0.203l0.113-0.203l0.113-0.18l0.113-0.191l0.158-0.18l0.146-0.18l0.146-0.158l0.158-0.146l0.146-0.158
		l0.169-0.146l0.169-0.146l0.18-0.113l0.18-0.135l0.169-0.113l0.191-0.113l0.225-0.113l0.191-0.113l0.203-0.068l0.225-0.113
		l0.225-0.079l0.191-0.056l0.248-0.056l0.203-0.056l0.248-0.045l0.225-0.034l0.225-0.023h0.225l0.203,0.023L22.424,12.483z
		 M67.343,15.185v-2.162c0-0.225,0.225-0.484,0.484-0.484c0.27,0,0.495,0.248,0.495,0.484v10.582
		c-0.034,0.27-0.248,0.473-0.495,0.473c-0.281,0-0.518-0.225-0.518-0.484v-2.162l-0.068,0.056c-1.036,1.576-2.814,2.567-4.807,2.567
		c-3.197,0-5.742-2.612-5.742-5.787c0.023-3.152,2.612-5.742,5.798-5.742c1.981,0,3.738,1.036,4.762,2.589l0.09,0.079V15.185z"/>
	<path d="M62.491,12.483h0.248l0.225,0.023l0.225,0.023l0.259,0.034l0.191,0.034h0.023l0.225,0.056l0.203,0.056l0.225,0.068
		l0.203,0.068l0.225,0.113l0.225,0.079l0.191,0.09l0.191,0.113l0.191,0.113l0.191,0.113h0.023l0.169,0.113l0.191,0.158l0.191,0.146
		l0.158,0.146l0.169,0.158l0.146,0.18l0.146,0.169l0.135,0.169l0.113,0.18l0.135,0.169l0.023-2.026v-0.113l0.034-0.079V12.81
		l0.023-0.034l0.045-0.068l0.034-0.045l0.034-0.045l0.056-0.034h0.023l0.045-0.045h0.079v-0.023h0.27l0.068,0.023l0.056,0.034
		l0.068,0.034l0.056,0.056l0.045,0.045l0.034,0.056l0.045,0.056v0.045h0.023v10.808l-0.034,0.068v0.079h-0.023l-0.023,0.045
		l-0.045,0.045l-0.056,0.068l-0.045,0.034l-0.068,0.034l-0.056,0.034l-0.09,0.045h-0.315l-0.056-0.023h-0.079v-0.034l-0.056-0.034
		l-0.068-0.045l-0.045-0.045l-0.034-0.068l-0.034-0.056l-0.034-0.056l-0.034-0.068v-2.173l-0.113,0.146l-0.113,0.18l-0.135,0.191
		l-0.158,0.169l-0.146,0.146l-0.158,0.169l-0.158,0.146l-0.191,0.146l-0.18,0.135l-0.191,0.113l-0.191,0.113l-0.191,0.135
		l-0.203,0.113l-0.203,0.113l-0.225,0.079l-0.203,0.113l-0.203,0.056l-0.225,0.079l-0.248,0.056l-0.203,0.034L63.29,24l-0.225,0.034
		H62.84l-0.259,0.023h-0.495l-0.225-0.034L61.635,24l-0.225-0.023l-0.259-0.056l-0.225-0.045l-0.225-0.056l-0.203-0.09l-0.225-0.068
		l-0.191-0.079l-0.225-0.113l-0.203-0.09l-0.191-0.113l-0.203-0.113l-0.18-0.113l-0.191-0.113l-0.18-0.158l-0.18-0.146l-0.135-0.146
		l-0.158-0.169l-0.158-0.146l-0.146-0.169l-0.146-0.18l-0.113-0.18l-0.135-0.18l-0.113-0.191l-0.135-0.191l-0.113-0.203l-0.09-0.225
		l-0.09-0.191l-0.068-0.225l-0.09-0.225l-0.056-0.225l-0.068-0.203l-0.056-0.225l-0.034-0.248l-0.034-0.225l-0.045-0.225v-0.957
		l0.045-0.248l0.045-0.203l0.034-0.248l0.056-0.225l0.068-0.225l0.079-0.225l0.068-0.203l0.113-0.203v-0.034l0.079-0.191
		l0.113-0.203l0.113-0.203l0.113-0.203l0.135-0.18l0.113-0.191l0.113-0.18h0.034l0.113-0.169l0.169-0.158l0.158-0.146l0.158-0.158
		h0.023l0.158-0.135l0.169-0.146l0.169-0.113l0.191-0.135l0.158-0.113l0.191-0.135l0.225-0.079l0.191-0.113l0.203-0.079l0.225-0.079
		l0.203-0.113l0.225-0.045l0.225-0.068l0.225-0.045l0.225-0.045l0.248-0.045l0.225-0.023h0.248l0.191,0.045L62.491,12.483z
		 M15.027,4.862c0.225,0,0.45-0.203,0.45-0.484V2.464c0-0.27-0.191-0.473-0.473-0.473c-0.248,0-0.473,0.203-0.495,0.45L14.532,4.4
		c0,0.248,0.225,0.45,0.495,0.45V4.862z"/>
	<path d="M15.027,1.923h-0.146l-0.079,0.034l-0.056,0.045L14.69,2.036L14.633,2.07L14.6,2.126V2.16l-0.056,0.045v0.09L14.51,2.34
		v0.056l-0.023,0.079v2.026l0.023,0.045l0.023,0.068v0.068l0.056,0.034l0.034,0.068l0.045,0.045l0.056,0.045l0.068,0.045
		l0.068,0.023h0.27l0.056-0.034l0.068-0.034l0.056-0.034l0.045-0.034l0.023-0.056l0.045-0.056l0.034-0.068V2.351l-0.023-0.079
		l-0.034-0.045l-0.056-0.056l-0.034-0.045l-0.045-0.045l-0.068-0.034h-0.045V2.002h-0.056V1.98h-0.068l-0.045-0.023L15.027,1.923z
		 M15.005,24.068c0.259,0,0.484-0.225,0.484-0.495V13.046c0-0.27-0.225-0.495-0.495-0.495c-0.248,0-0.495,0.225-0.495,0.484v10.537
		c0,0.27,0.225,0.484,0.495,0.484L15.005,24.068z"/>
	<path d="M15.005,12.506H14.87v0.023h-0.068l-0.068,0.045l-0.056,0.045l-0.045,0.045l-0.045,0.056l-0.056,0.056l-0.023,0.056
		L14.487,12.9v10.841l0.034,0.056l0.023,0.068l0.056,0.068l0.034,0.045v0.034l0.045,0.034h0.034l0.045,0.034l0.056,0.023
		l0.068,0.045h0.293l0.056-0.034h0.068V24.09h0.056l0.045-0.056l0.045-0.056l0.034-0.056v-0.056l0.034-0.068V23.73l0.023-0.079
		V13.046l-0.023-0.056v-0.079h-0.023v-0.068l-0.045-0.056l-0.056-0.068l-0.045-0.056l-0.045-0.023l-0.056-0.034l-0.068-0.023
		l-0.056-0.023l-0.113-0.045L15.005,12.506z M54.723,12.596c0.281,0,0.484,0.225,0.484,0.495v1.351
		c1.441-2.814,4.391-4.683,7.734-4.672c0.248,0,0.495,0.225,0.495,0.473c0,0.27-0.248,0.495-0.495,0.495
		c-4.244-0.045-7.723,3.377-7.745,7.61v5.291c0,0.225-0.225,0.484-0.484,0.484c-0.248,0-0.45-0.248-0.45-0.495V13.08
		c0-0.281,0.191-0.495,0.473-0.495L54.723,12.596z"/>
	<path d="M54.723,12.551h0.146l0.068,0.034l0.068,0.023l0.034,0.034l0.068,0.034l0.023,0.045l0.034,0.068l0.034,0.056l0.045,0.079
		v1.238l0.034-0.034l0.113-0.248h0.034l0.113-0.225l0.169-0.225l0.169-0.203l0.169-0.225l0.158-0.203l0.203-0.225l0.18-0.203
		l0.203-0.18l0.203-0.169l0.191-0.18l0.225-0.158l0.191-0.169l0.225-0.158l0.225-0.146l0.225-0.146l0.225-0.146l0.225-0.113
		l0.248-0.113l0.225-0.135l0.259-0.113l0.248-0.113l0.225-0.113l0.281-0.079l0.27-0.079l0.27-0.079l0.27-0.056l0.27-0.034
		l0.281-0.045l0.27-0.045l0.27-0.045l0.293-0.023h0.675l0.068,0.023L63.2,9.793l0.056,0.023l0.056,0.056l0.045,0.045V9.95
		l0.045,0.045l0.056,0.068v0.417l-0.056,0.068l-0.023,0.068l-0.045,0.045l-0.056,0.023l-0.068,0.034l-0.068,0.056l-0.079,0.023
		h-0.394l-0.248,0.023h-0.281l-0.248,0.045l-0.259,0.045l-0.248,0.045l-0.27,0.045l-0.225,0.068l-0.248,0.068l-0.248,0.079
		l-0.225,0.079l-0.259,0.113l-0.225,0.113l-0.225,0.09l-0.225,0.113l-0.225,0.135l-0.203,0.113l-0.203,0.158l-0.225,0.146
		l-0.191,0.135l-0.191,0.158l-0.203,0.158l-0.169,0.169l-0.169,0.18L57.29,13.26l-0.18,0.18l-0.158,0.191l-0.146,0.203l-0.146,0.203
		l-0.113,0.225l-0.158,0.191l-0.113,0.248l-0.113,0.203l-0.135,0.225l-0.113,0.225l-0.079,0.225l-0.09,0.248l-0.09,0.248
		l-0.068,0.248l-0.068,0.225l-0.056,0.248l-0.045,0.248l-0.056,0.27l-0.034,0.225l-0.023,0.293l-0.023,0.27v5.685l-0.023,0.068
		l-0.023,0.056l-0.034,0.056l-0.045,0.068l-0.056,0.045l-0.045,0.023l-0.045,0.045l-0.068,0.023h-0.304l-0.068-0.023l-0.068-0.045
		l-0.045-0.034L54.397,24l-0.034-0.056l-0.045-0.045l-0.023-0.056v-0.068l-0.023-0.068V12.933l0.045-0.068l0.034-0.056l0.034-0.056
		l0.045-0.068l0.056-0.045l0.056-0.034l0.056-0.045l0.056-0.045h0.135L54.723,12.551z M39.637,15.185V1.518
		c0-0.259,0.259-0.484,0.495-0.484c0.27,0,0.495,0.225,0.495,0.484v22.088c0,0.248-0.225,0.45-0.495,0.45h-0.045
		c-0.27,0-0.484-0.203-0.484-0.473l0.034-2.162l-0.068,0.056c-1.058,1.542-2.814,2.556-4.841,2.556
		c-3.152,0-5.742-2.612-5.742-5.787c0.034-3.152,2.623-5.742,5.809-5.742c1.981,0,3.715,1.036,4.762,2.589l0.079,0.079h0.023
		L39.637,15.185z"/>
	<path d="M34.808,12.483h0.473l0.225,0.034l0.225,0.034l0.259,0.045l0.203,0.056l0.225,0.056l0.225,0.068l0.225,0.068l0.203,0.113
		l0.225,0.079l0.191,0.09l0.191,0.113l0.203,0.113l0.169,0.113l0.18,0.113l0.158,0.158l0.18,0.146l0.158,0.146h0.023l0.158,0.158
		l0.146,0.18l0.146,0.169l0.113,0.169l0.158,0.18l0.113,0.18V1.45l0.034-0.079l0.023-0.056l0.034-0.056l0.034-0.068l0.056-0.045
		l0.045-0.034l0.045-0.045l0.056-0.023l0.045-0.023L40.031,1h0.158l0.068,0.023h0.068v0.023l0.056,0.023l0.079,0.045l0.045,0.045
		l0.056,0.056l0.056,0.056l0.034,0.056v0.068h0.023v22.268l-0.023,0.079l-0.023,0.079v0.068l-0.056,0.045l-0.034,0.056v0.023
		l-0.045,0.034l-0.068,0.034l-0.056,0.034l-0.056,0.045h-0.338l-0.068-0.023l-0.068-0.034l-0.045-0.034l-0.056-0.056l-0.023-0.034
		l-0.045-0.056l-0.023-0.056l-0.023-0.079V23.73l-0.034-0.079v-2.004l-0.068,0.113l-0.113,0.203H39.39l-0.113,0.18L39.108,22.3
		l-0.158,0.146l-0.169,0.158l-0.158,0.158l-0.18,0.146l-0.169,0.113l-0.191,0.135l-0.191,0.113l-0.203,0.113l-0.18,0.113
		l-0.203,0.113l-0.225,0.09l-0.18,0.079l-0.225,0.079l-0.225,0.068l-0.225,0.068l-0.225,0.034l-0.225,0.034l-0.225,0.034h-0.248
		l-0.225,0.034h-0.484l-0.248-0.034l-0.225-0.023h-0.225l-0.225-0.056l-0.225-0.056l-0.225-0.056l-0.203-0.068l-0.225-0.09
		l-0.203-0.068l-0.225-0.113l-0.203-0.09l-0.203-0.113l-0.203-0.113l-0.18-0.113l-0.191-0.113l-0.169-0.158h-0.023l-0.158-0.146
		l-0.169-0.135l-0.135-0.158l-0.158-0.146l-0.158-0.158l-0.113-0.169l-0.146-0.18l-0.113-0.18l-0.135-0.18l-0.113-0.203
		l-0.113-0.203l-0.09-0.203l-0.09-0.225l-0.09-0.203l-0.079-0.225l-0.079-0.225L29.201,19.7l-0.045-0.203l-0.068-0.248l-0.034-0.225
		v-1.205l0.034-0.225l0.045-0.225l0.034-0.225l0.045-0.248l0.068-0.225l0.056-0.191l0.079-0.203l0.09-0.225l0.113-0.203l0.09-0.225
		l0.113-0.191l0.113-0.203l0.135-0.191l0.113-0.18l0.135-0.18l0.146-0.169l0.146-0.158l0.158-0.146l0.169-0.158l0.169-0.158
		l0.18-0.146l0.18-0.113l0.18-0.113l0.18-0.135l0.203-0.113l0.203-0.113l0.203-0.079l0.203-0.113l0.203-0.079l0.225-0.079
		l0.225-0.079l0.225-0.056l0.225-0.045l0.225-0.056l0.225-0.045l0.259-0.023h0.225l0.169-0.045L34.808,12.483z M41.529,2.374
		L41.9,2.07c3.963,1.295,7.318,2.139,9.907-0.113l3.287,1.97c-1.801,0.979-2.927,1.351-4.807,1.61
		c2.105,1.407,4.03,3.085,4.695,4.999l-3.907-0.023c-1.205-3.94-5.381-6.62-9.535-8.151v0.023L41.529,2.374z"/>
	<path d="M41.9,2.013l0.281,0.09l0.225,0.09l0.281,0.09l0.248,0.068l0.27,0.09l0.259,0.068l0.259,0.079l0.248,0.068l0.248,0.056
		l0.225,0.09l0.259,0.056l0.248,0.079l0.248,0.045l0.225,0.068l0.225,0.045l0.259,0.023l0.225,0.045l0.225,0.045h0.225l0.248,0.045
		h0.203l0.248,0.034h0.428l0.225,0.045l0.203-0.034h0.428l0.203-0.034L48.97,3.24l0.203-0.034l0.203-0.056l0.225-0.045l0.191-0.068
		l0.191-0.056l0.18-0.056l0.203-0.09l0.191-0.113l0.18-0.068l0.191-0.113l0.18-0.113l0.18-0.113l0.169-0.113l0.18-0.191l0.203-0.18
		l3.344,1.993v0.045l-0.248,0.146L54.712,4.13l-0.225,0.113l-0.191,0.113l-0.18,0.068l-0.203,0.113L53.71,4.614l-0.18,0.079
		L53.327,4.76l-0.18,0.068l-0.18,0.09l-0.191,0.056l-0.169,0.068l-0.191,0.068l-0.18,0.045l-0.191,0.068l-0.191,0.056l-0.225,0.045
		l-0.18,0.056l-0.203,0.023l-0.225,0.034l-0.203,0.045l-0.248,0.034h-0.09l0.113,0.09l0.225,0.169l0.225,0.158l0.225,0.146
		l0.225,0.146l0.203,0.169l0.225,0.169l0.203,0.158l0.191,0.158l0.203,0.169l0.191,0.18l0.191,0.169l0.203,0.18l0.169,0.169
		l0.18,0.203l0.191,0.18l0.169,0.18l0.158,0.191l0.158,0.18l0.146,0.191l0.113,0.18l0.158,0.191v0.034l0.113,0.191l0.113,0.191
		l0.113,0.203l0.09,0.203l0.079,0.225l0.09,0.225v0.023h-4.03l-0.113-0.315l-0.09-0.248l-0.113-0.225l-0.113-0.281l-0.113-0.248
		l-0.113-0.225l-0.135-0.248L50.175,8.52l-0.158-0.225L49.871,8.07l-0.169-0.225L49.544,7.62l-0.158-0.225l-0.18-0.203l-0.203-0.191
		l-0.18-0.203l-0.18-0.225l-0.225-0.18l-0.191-0.225l-0.225-0.169l-0.203-0.191l-0.225-0.18l-0.248-0.191l-0.225-0.169l-0.248-0.169
		l-0.225-0.18l-0.259-0.18l-0.248-0.146l-0.225-0.158l-0.248-0.158l-0.27-0.146l-0.248-0.158L44.85,3.826l-0.225-0.113l-0.293-0.169
		l-0.259-0.113l-0.27-0.113l-0.27-0.158l-0.281-0.113L42.97,2.914L42.7,2.801l-0.281-0.113l-0.27-0.09l-0.259-0.113l-0.281-0.113
		H41.54V2.351"/>
</g>
</svg>
