<?xml version="1.0" encoding="utf-8"?>
<!-- Generator: Adobe Illustrator 17.0.0, SVG Export Plug-In . SVG Version: 6.00 Build 0)  -->
<!DOCTYPE svg PUBLIC "-//W3C//DTD SVG 1.1//EN" "http://www.w3.org/Graphics/SVG/1.1/DTD/svg11.dtd">
<svg version="1.1" id="Ebene_1" xmlns="http://www.w3.org/2000/svg" xmlns:xlink="http://www.w3.org/1999/xlink" x="0px" y="0px"
	 width="69.445px" height="11.89px" viewBox="0 0 69.445 11.89" enable-background="new 0 0 69.445 11.89" xml:space="preserve">
<g>
	<g>
		<g>
			<path d="M4.956,4.258H2.215v1.436h2.222v0.801H2.215V8.94H1.327V3.457h3.636v0.801L4.956,4.258L4.956,4.258z"/>
			<path d="M7.416,8.94H6.528V3.457h0.887L7.416,8.94L7.416,8.94z"/>
			<path d="M10.157,8.139h2.741V8.94H9.262V3.457h0.887v4.682H10.157z"/>
			<path d="M15.372,8.139h2.741V8.94h-3.636V3.457h0.887v4.682H15.372z"/>
			<path d="M20.588,8.94h-0.887V3.457h0.887V8.94z"/>
			<path d="M26.77,8.94h-0.923l-2.373-3.968V8.94h-0.887V3.457h0.923l2.373,3.975V3.457h0.887V8.94L26.77,8.94z"/>
			<path d="M31.091,5.968h2.171v2.979h-0.729L32.383,8.55c-0.39,0.303-0.83,0.462-1.335,0.462c-0.794,0-1.436-0.267-1.933-0.801
				c-0.498-0.534-0.743-1.205-0.743-2.013c0-0.801,0.245-1.472,0.743-2.013c0.498-0.534,1.14-0.801,1.933-0.801
				c1.01,0,1.724,0.418,2.15,1.255l-0.772,0.433c-0.26-0.584-0.721-0.88-1.378-0.88c-0.541,0-0.967,0.195-1.284,0.577
				c-0.317,0.382-0.476,0.858-0.476,1.436s0.159,1.053,0.476,1.436c0.317,0.382,0.743,0.577,1.284,0.577
				c0.418,0,0.743-0.123,0.981-0.375c0.231-0.245,0.353-0.606,0.353-1.068h-1.284V5.968H31.091z"/>
			<path d="M38.514,3.457h2.59c0.498,0,0.916,0.166,1.255,0.498c0.339,0.332,0.505,0.729,0.505,1.205
				c0,0.483-0.173,0.887-0.512,1.212c-0.346,0.325-0.772,0.491-1.291,0.491h-1.652V8.94h-0.894L38.514,3.457L38.514,3.457z
				 M41.061,6.054c0.281,0,0.505-0.079,0.671-0.245c0.166-0.166,0.245-0.382,0.245-0.649c0-0.26-0.079-0.469-0.245-0.642
				c-0.166-0.173-0.39-0.253-0.671-0.253h-1.652v1.789H41.061z"/>
			<path d="M45.252,8.94h-0.887V3.457h0.887V8.94z"/>
			<path d="M47.25,3.457h3.794v0.801h-2.907v1.436h2.381v0.801h-2.381v1.638h2.936V8.94H47.25V3.457z"/>
			<path d="M55.005,8.211c0.642-0.007,1.089-0.296,1.356-0.88l0.743,0.433c-0.202,0.39-0.476,0.7-0.837,0.923
				c-0.353,0.224-0.779,0.332-1.262,0.332c-0.772,0-1.399-0.274-1.883-0.808c-0.483-0.534-0.729-1.219-0.729-2.013
				s0.245-1.457,0.729-1.998c0.483-0.541,1.111-0.815,1.883-0.815c0.483,0,0.902,0.108,1.262,0.332
				c0.353,0.224,0.635,0.527,0.837,0.916l-0.743,0.433c-0.26-0.584-0.714-0.88-1.356-0.88c-0.527,0-0.945,0.188-1.255,0.57
				c-0.31,0.382-0.462,0.858-0.462,1.436c0,0.57,0.151,1.053,0.462,1.436C54.06,8.009,54.478,8.204,55.005,8.211z"/>
			<path d="M58.605,3.457h3.794v0.801h-2.907v1.436h2.381v0.801h-2.381v1.638h2.936V8.94h-3.823V3.457z"/>
			<path d="M68.3,7.302c0,0.584-0.188,1.01-0.57,1.291c-0.375,0.281-0.88,0.418-1.493,0.418c-1.111,0-1.941-0.382-2.489-1.154
				l0.757-0.433c0.39,0.519,0.967,0.779,1.739,0.779c0.151,0,0.289-0.014,0.426-0.043c0.137-0.029,0.267-0.072,0.397-0.137
				s0.238-0.159,0.31-0.281c0.079-0.123,0.115-0.274,0.115-0.44c0-0.195-0.065-0.346-0.195-0.462
				c-0.13-0.108-0.303-0.188-0.512-0.224c-0.209-0.036-0.44-0.065-0.693-0.087c-0.253-0.022-0.505-0.05-0.757-0.087
				c-0.253-0.043-0.483-0.108-0.693-0.195c-0.209-0.087-0.375-0.231-0.512-0.433c-0.13-0.202-0.195-0.462-0.195-0.772
				c0-0.555,0.195-0.974,0.577-1.248c0.39-0.274,0.88-0.411,1.486-0.411c1.003,0,1.688,0.303,2.049,0.909L67.283,4.72
				c-0.123-0.173-0.303-0.303-0.548-0.397c-0.238-0.094-0.483-0.137-0.736-0.137c-0.209,0-0.411,0.029-0.592,0.079
				c-0.18,0.05-0.346,0.144-0.483,0.281c-0.137,0.137-0.209,0.303-0.209,0.505c0,0.18,0.065,0.325,0.195,0.426
				c0.13,0.101,0.303,0.173,0.512,0.202c0.209,0.036,0.447,0.058,0.7,0.079s0.512,0.05,0.765,0.094
				c0.252,0.043,0.483,0.108,0.693,0.202c0.209,0.094,0.382,0.238,0.512,0.454C68.235,6.718,68.3,6.985,68.3,7.302z"/>
		</g>
		<rect x="1.32" y="1.25" width="3.636" height="0.801"/>
		<rect x="63.748" y="10.339" width="4.552" height="0.801"/>
	</g>
</g>
</svg>
