<svg xmlns="http://www.w3.org/2000/svg" viewBox="0 0 600 400">
  <path fill="#000" fill-rule="evenodd" d="M318.2 27.2l-.4-2.6C317 12 326.5 1 339.2 0c12.6-.8 23.6 8.7 24.5 21.4C364.7 34 355 45 342.4 46H340c-.5 0-.8 0-1.3.5-1.3 2 3.4 1.6.2 10.5 0 0 0 1-.4 2-.3 3.4-1.6 13.4-1.8 18.8.7.8 1 1.2.8 3-.3 2.6-1 9-1.8 13-.8 3.3-2.2 4-3.4 4.8-1.6 7-2 13-6 21.6-.4 6.6-1 8.4-2.3 11.6 0 9.6.6 11-6 26.3-1.6 7.3 0 12.2 1.8 19.6 1.8 7.7 7 11 7.6 18.7 1.8 18.4 1.3 31-2.6 45.3l3.4 8.2c4.3 2 15 7.3 9 15.8 8.3 4.3 21 9 31.2 17.8 4.2 3.4 8.6 7.2 12.5 11.6 7.4 1.2 6.6 1.8 12.2 5.2 16.3 10 42.6 30 57.8 44 2.6 1.5 3.6 2.6 5.8 3.7.3.5.4.6.3.8l-1.2 3.4c.8 1 2.3 1.7 3.2 2.5 1 .3 1 0 2.3-.5 2 1.8 4.3 3.2 5.2 3.2 2.5-.7 2-.2 4.3-2.6.8-.8 2 0 2 0 1-1 2.7-3 5-4.3 2-1 5.5-1.2 5.5-1.2 1.2 0 1 1.2 1 1.6-1.5.6-4.4 1.4-6 2.6-3.5 3.6-6.2 8.5-6.2 8.5 7-.8 11.5 1 17.4.2 3.2-.2 5.6 0 9-2.4 0 0 3.2-2.3 6-3.5 3-1.2 5.6-.6 8 1.2 1.8 2 3 2 .2 4.8l-4 4c-3.2 3-7.4 7.2-11.8 10.6-4.4 3.4-9.4 6.4-12.5 8-8 5.5-6 4-12.2 9.6-.7.7-2.8 2-3.8 2.6-2.4 1.6-3.2.3-4.8-2.6 0 0-.7-1-2-3.5-1.2-2.4-2.2-5.3-1.8-5.3-1.5-.2-8-8-8-9.6-1.5-.2-7.4-6-7.7-7l-5.3-4.3c-6 1.3-7.5-2.4-23.4-13.7-1.8 0-4.6-1-8.7-4-7-5.8-24.4-18.8-27.3-20.3-3.2-1.6-7-3-9.2-5-3.4-.6-5.3-1-7-1.5-1.8-.5-3.4-1-7.8-1.7-7.3-1-14.8-4-22-7.5-3.4-1.6-6.4-2.4-9.3-3.6-6.6-2.8-12.3-5.3-16.6-6.3-1.7 0-9.6-2.4-13.7-5-1.5-.6-2.3-1.3-3.3-1.5-2-.5-3.5.3-4.5.7-5.4 2.7-10.4 5-15 7.6-4.3 2.3-8.2 4.7-12.4 7-3.8 2.2-8 4.3-12.6 6.4 0 0-12.8 6.4-19.7 9-6 4.8-18.4 13.3-26 17.6-3.7 1.7-11 6.3-14.3 7.4l-14 10.3c-4.2 3-7.3 5.7-7.3 5.7-2.4 2-2.2 3.2-6.8 1.2l-3 2.3c-3.4 2.4-3.7 1.8-5 1.7-2.2 2-2.5 1-4.5 3.3-1.3 2 0 1.5-2.7 2.5-.6.2-1 1-1.3 1.3-2.2 2-2.3 7-7.6 7.4-3.2 2-2.4 4.8-4.8 4.7.2 2.2-4 5.6-5 5.6-6.7 2.3-7.2-2.7-15.4 1-1 .5-2.6 2-4.6 2.2-3.6.7-8 0-10.6-2-4.2-3.2-8-9.4-8-9.4-1.3-3-.6-5 3.6-8 1.7-1 2-2 5-2 1.4-.6 1 .2 3.5-.7 1.5-.6 1.5-.2 4.5-.4.7-.6 1.7-.8 3-1.2l4.6-1.6s.6-.7 3-.4c2-.8 3.8-2 5-2.4-.4-3 0-3 1.3-4 2-1.6 2.2-1.4 3.5-.4.6-.3 1-.5.8-1-.2-1.5-1.6-2.3-1.2-5.8-.5-1.4-1.4-3-1.2-4 .3-1.3.6-1.8 1.3-2.2.8-.4 1 .2 1.4.6.7.8 1.3 3.2 1.3 3.2.2 2.7 1 6.2 3.8 4.2 1.5-1.6 2-5.8 5-5l2.4 2c1.8-1.7 2-1.7 3-2.5 0 0-1.7-1.8 0-3.3 1-1 2.3-1.6 4.6-4.2 6.5-7.2 9.8-10.3 16.8-16 14-11.5 29.8-19.5 39.8-23.5 3.3-4.2 6.5-7 13.8-7.6 8.7-14.7 25.3-27.8 29-30 3.2-5.5 4.5-5 8.6-6 3.2-2.6 4-2.6 5.3-5.2 1.3-5.6-3.3-20.4 8.5-21.2 2.5-3.5 2-2.6 4.7-6-2-4.6-2.7-8.5-3.2-12 0-.3-4.7-3.5-3.4-7.7-2-2.4-5.6-7.8-6.7-10.4l-1.6-.2c-.6 0-1.4 0-2.2-.2-1.8 4.8-3.8 5-7 6.2-6 12.4-8 17.6-24.5 28-6.5 7.2-8.6 15.4-8.6 15.2-1 2.5-.6 5.8 0 7.7-1 2.6-.7 3-.7 3 .4 1 1.3 2.3 2.5 2.5 2 .6 4 .5 3.8 2.7-.2 2.7-4 2.3-5.6 2-6.6-1-4.5-5.4-8.7-4-3.2 2.2-4.5 8.4-9.7 7.6-.7-.3-.5-1.7 0-2.7.7-1.5 2-2.8 1.2-3.4l-10.3 3.3c-3.2 1-6.8-.7-3.6-3 1.4-.4 3.5-1.2 6-2.8 0 0 1.5-2-1-1-3 1-7 1.7-10 1.4 0 0-6.2-1-7-1.4-.8-.5-1.5-2.4.4-2.4 2.4 0 8.6-.7 13.3-2 2.3-1 6.6-3.4 9-4.6 0 0 2.7-4 4.2-4.7 2.3-3 4.4-4.5 6.5-7.4 2-4.3 4.3-11.2 11.3-21.8 3.2-5 7.2-10.6 12.3-15.7 0 0 1.4-8 8-14 1.4-3.3 3.6-7.3 5.7-11 1-1.4 1.7-2.7 2.5-4 2-3.2 4-9 12-10 0 0 3.5-2.6 4.8-4.4 2-1.7 1.5-4.4 3.2-6.3-2.5-2.4-9-7-9.6-13.5-.7-6.8 1.7-12.4 6-16.6 4.4-4.5 9.3-6.8 15-6.5 7.4 1 8.8 3.5 11.2 6 2.2 2.2 3 .7 4 3.4 6 1.7 5.8 1 5.7 5.5 1 1.3 2.5 2.5 2.5 5 2-4.2 2.5-5 8-9.7 1.3-3.8 2.2-7.5 3.3-11.4 1-3.5 2.5-7 3.5-10-1-7.6 1.2-9 4.2-15.7-.6-1-.5-1.2-.2-2.7 1-4.5 3-10.4 4-14.3 0 0 .4-1.5 2-1.6 1.4-4.8 3.4-14 3.8-15.8 1.4-5 .5-6.7-.6-9.6-.3-1-.2-2.3-.8-3.3-1.7-3-3.5-7-4.8-9.6-.8-1.8-2-8.4-2-8.4-1.2-3.4-.2 0-.2 0"/>
</svg>
