<svg xmlns="http://www.w3.org/2000/svg" viewBox="0 0 600 400">
  <g fill="#000" fill-rule="evenodd">
    <path d="M341.4 284.3H355v75.4h-13.6zM108 303.2h14.4l10.3 34.5h.2l9.2-34.5H153l9.2 34.5h.2l10.4-34.5h14.4l-20.7 56.6h-8.3L147.6 323h-.2L136.7 360h-8.4M585.5 326.6c-1.5-9-8-13-15.3-13-5.5 0-13.4 2.5-16 13h31.3zm-30.8 11c.6 3.6 6 11.6 15.5 11.6 6 0 10.5-2.6 13-7.3h14.3c-3.2 10-14 19.6-27.3 19.6-17.2 0-29.8-13.5-29.8-30 0-16 11.8-30.3 29.7-30.3 18.7 0 29.4 15 29.4 29.4 0 2.7-.4 5-.8 6.8h-44zM536.2 341.3c-4.6 12.6-15 20.3-28.3 20.3-14.6 0-30.2-11.6-30.2-30.4 0-17.3 14.4-30 30-30 7 0 22.6 3.3 28.4 20.7H521c-1.7-3-5-8.3-13.2-8.3-8.3 0-16.4 6-16.4 17.7 0 9.7 6.8 17.8 17 17.8 4.5 0 9-2.2 12.5-8H536zM424.3 303.2h12.5v5c2.2-2.3 7-7 15.5-7 5 0 12.3 2.2 17 8 5.2 6 5.2 15.6 5.2 20v30.6H461v-28c0-4.7 0-18-11.5-18-2.4 0-6.8 1-9.2 5-2.5 3.3-2.5 9.3-2.5 14v27h-13.5v-56.6zM388.8 313.7c-11 0-16.8 9.6-16.8 18 0 9.6 7 17.5 16.8 17.5 9.4 0 16.5-7.4 16.5-18 0-11.6-8.4-17.5-16.5-17.5zm29.4 46h-12.5v-7c-4.2 5-12.6 9-19.7 9-14.6 0-27.5-11.7-27.5-30.6 0-17.2 12.6-29.7 28.3-29.7 11.5 0 18.3 8.2 18.7 9h.2v-7h12.5v56.5zM306 313.7c-11 0-16.8 9.6-16.8 18 0 9.6 7 17.5 16.8 17.5 9.4 0 16.5-7.4 16.5-18 0-11.6-8.5-17.5-16.5-17.5zm29.3 46H323v-7c-4.4 5-12.7 9-20 9-14.4 0-27.4-11.7-27.4-30.6 0-17.2 12.7-29.7 28.4-29.7 11.5 0 18.3 8.2 18.7 9h.2v-7h12.3v56.5zM242.7 349.2c9 0 16.3-7 16.3-18s-8-17.5-16.5-17.5c-10.4 0-16.8 8.8-16.8 17 0 12.6 9 18.5 17 18.5zm-29.7-65h13.5v24c4.7-4.6 11.4-7 17.7-7 17.2 0 28.4 15 28.4 30 0 11.3-7.4 30.4-28 30.4-11 0-15.8-5-19.2-8.7v6.8H213v-75.5zM98.4 326.6c-1.5-9-8-13-15.2-13-5.5 0-13.5 2.5-16 13h31.2zm-30.8 11c.6 3.6 6 11.6 15.6 11.6 6 0 10.4-2.6 13-7.3h14.3c-3.3 10-14 19.6-27.3 19.6-17.3 0-30-13.5-30-30 0-16 12-30.3 30-30.3 18.4 0 29 15 29 29.4 0 2.7-.3 5-.7 6.8h-44zM0 303.2h12.5v5c2.3-2.3 7-7 15.5-7 5 0 12.3 2.2 17 8 5.2 6 5.2 15.6 5.2 20v30.6H36.7v-28c0-4.7 0-18-11.4-18-2.5 0-7 1-9.3 5-2.5 3.3-2.5 9.3-2.5 14v27H0v-56.6zM465.6 241.2h1.5l2.4 3.8h1.4l-2.4-3.8c1.3-.2 2.2-.8 2.2-2.4 0-1.7-1-2.5-3-2.5h-3.4v8.7h1.4v-3.8zm0-3.8h1.8c1.5 0 2 .5 2 1.3 0 1-.6 1.4-2.3 1.4h-1.4v-2.6zm-6 3.2c0 4.4 3.4 7.6 7.6 7.6 4 0 7.6-3.2 7.6-7.6 0-4.3-3.5-7.5-7.6-7.5-4.2 0-7.7 3.3-7.7 7.6zm13.7 0c0 3.7-2.7 6.4-6 6.4-3.6 0-6.3-2.7-6.3-6.4 0-3.6 2.7-6.3 6.2-6.3 3.4 0 6 2.7 6 6.3zM229.5 173.8l-18 30.8L113 199l10-17 106.5-8.2zm71.3-98l9 34-140-9.3 9.8-17.2 121.2-7.6zM208 34h82l6 23.3-98-6L208 34zm-7.2 189.8l-14.3 24.5h-102l10-17 106.3-7.5zm179-66L355 200.4h23.6c11 0 30.4-5.4 36.4-21 5.6-14.3-4.7-21.8-11.8-21.8h-23.4zm23.5-41h20.5c13.6-.2 28-6.4 33-19 5-11.8-1.6-22-10-21.8h-20l-23.5 40.8zm-92.8-7l20.7-36 70-4.6 2.5-4.3-64.8-4.6L354 34h120.2c37 0 64.3 13.2 53.7 52-3.3 12-18.3 41.5-62.4 54 9.4 1 32.7 11.4 28.6 38.2-7 47.4-68.5 70-102.7 70H249.7l-7-27.4 74.3-5.2 2.5-4.3-80.6-5-8.8-32.5L345 167l2.4-4.2-206-13 9.8-17.2L373 118.2l2.5-4.3-65-4.3z"/>
  </g>
</svg>
