<?xml version="1.0" encoding="utf-8"?>
<!-- Generator: Adobe Illustrator 17.0.0, SVG Export Plug-In . SVG Version: 6.00 Build 0)  -->
<!DOCTYPE svg PUBLIC "-//W3C//DTD SVG 1.1//EN" "http://www.w3.org/Graphics/SVG/1.1/DTD/svg11.dtd">
<svg version="1.1" id="Ebene_1" xmlns="http://www.w3.org/2000/svg" xmlns:xlink="http://www.w3.org/1999/xlink" x="0px" y="0px"
	 width="69.445px" height="36.14px" viewBox="0 0 69.445 36.14" enable-background="new 0 0 69.445 36.14" xml:space="preserve">
<g>
	<path d="M26.836,18.805l6.273-17.714h-4.286l-6.295,17.714"/>
	<path d="M16.824,33.46L68.09,12.03l-20.18,5.101l0.692-1.853h-4.654l1.395-3.918h3.706l1.339-3.527h-3.795l1.272-3.516h3.907
		l1.138-3.226h-8.215l-5.938,16.742L38.31,8.57l6.172-7.478h-4.152l-3.806,4.554l1.63-4.554h-4.308l-6.284,17.714h4.275l1.842-5.224
		c0,0,0.592-1.496,0.592-0.089v5.302h6.943l-24.935,6.295c-1.897,0.469-3.873,0.301-5.514-0.893
		c-4.018-2.88-2.601-8.036-0.826-11.675C6.5,16.494,2.961,20.49,1.533,25.803c-0.614,2.277-0.592,4.71,0.949,6.541
		c3.572,4.241,9.744,3.014,14.343,1.083"/>
	<path d="M14.871,18.805l2.656-7.478l-0.402,7.478h4.744l6.284-17.714h-4.241l-2.489,6.887l0.424-6.887h-4.911L10.63,18.805"/>
</g>
</svg>
