<svg xmlns="http://www.w3.org/2000/svg" viewBox="0 0 600 400">
  <g fill="#000" fill-rule="evenodd">
    <path d="M323 47.6c-2 .3-3.8 7.5-7.6 11.2-2.8 2.7-6.2 2.6-8 6-.8 1.2-.6 3.3-1.3 5.4-1.5 4-7 4.5-7 9 0 4.8 4.6 5.7 8.6 9 3 3 3.3 4.8 7 6 3.3 1.2 8-2.3 12.3-1 3.4 1 6.7 1.7 7.5 5.3.7 3.4 0 8.5-4.3 8-1.4-.3-7.6-2.3-15.3-1.5-9.3 1-19.8 4-20.8 14.3-.6 5.7 6.5 12.5 13.4 11 4.7-.8 2.5-6.4 5-9 3.4-3.6 22.6 12 40.4 12 7.5 0 13-2 18.6-7.7.6-.4 1.2-1.4 2-1.4.7 0 2 .8 2.5 1 14.4 11.6 25.3 34.7 78 35 7.5 0 16 3.6 22.8 10 6 5.6 9.7 14.4 13.2 23.4 5.3 13.5 14.8 26.6 29 41.2l13.6 10.6c.2 0 1 2.2.8 3.3-.4 8.8-1.7 34.2 17.3 35.4 4.6.3 3.4-3 3.4-5.2 0-4.4-.7-8.8 1.6-13.4 3.2-6.2-6.7-9-6.4-22.6.2-10-8.3-8.3-12.6-16-2.4-4.4-4.6-6.7-4.5-12.2 1-30.5-6.4-50.6-10-55.5-3-3.6-5.4-5-2.7-6.8 15.8-10.5 19.4-20.2 19.4-20.2 8.4-19.8 16-38 26.4-45.8 2.2-1.6 7.6-5.7 11-7.2 9.6-4.6 14.7-7.4 17.6-10.2 4.4-4.3 8-13.4 3.7-19-5.3-6.7-14.6-1.3-18.6 1-29 17.3-33.4 47.8-43.5 65.3-8 14-21 24.3-32.8 25-8.7.8-18.2-1-27.6-5-23-10-35.4-23-38.3-25.4-6.2-4.7-54-51.5-92.5-53.4 0 0-4.8-9.6-6-9.8-2.8-.4-5.7 5.7-7.8 6.4-2 .7-5.2-6.6-7.2-6.2zM153 327c-3.7 0-6.8-3-6.8-6.8V199.7h-39.7v133c0 6.4 5.2 11.7 11.7 11.7h69.4c6.6 0 11.8-5.3 11.8-11.8v-133h-39.7v120.6c0 3.7-3 6.7-6.8 6.8zm133-127.3h-60.2c-7 0-13 5.8-13 13v131.7h39.8V223.6c0-3.7 3-6.7 6.8-6.7 3.7 0 6.7 2.8 6.7 6.5v121h39.7v-121c0-3.7 3-6.6 6.8-6.6 3.6 0 6.7 3 6.7 6.6v120.8H359V212.7c0-7.2-5.8-13-13-13h-60zM80 308H39.8v36.4H0V199.7h80.2c7.2 0 12.8 5.8 12.8 13V295c0 7.2-5.8 13-13 13zm-26.7-84.2c0-4-3.2-7-6.7-7h-6.8v73.3h6.8c3.5 0 6.7-2.7 6.7-6.7v-59.5zM513 327.2c0 10-7.8 18-17.5 18-10 0-17.8-8-17.8-18 0-9.7 8-17.8 17.5-17.8 10 0 18 8 18 17.8zM495.3 312c-8 0-14.7 7-14.7 15.3 0 8.4 6.7 15.2 15 15.2 8 0 14.8-6.8 14.8-15.2 0-8.4-6.7-15.3-14.8-15.3h-.3z"/>
    <path d="M503.8 337.5H499l-6-8v8h-4V317h4.2c5.5 0 8.4 2 8.4 6 0 2.8-1.7 5.2-4 6h-.4l6.6 8.5zM493.6 326c2.8 0 4.2-1 4.2-2.8 0-1.8-1.4-2.7-4-2.7h-.8v5.6h.6zm-68 18.4V308H412v36.4h-39.6V212.7c0-7.2 5.8-13 13-13h67c7 0 13 5.8 13 13v131.7h-39.8zm0-54.3v-66.5c0-3.7-3-6.5-6.7-6.5-3.8 0-6.8 3-7 6.6V290h13.6z"/>
  </g>
</svg>
