<svg xmlns="http://www.w3.org/2000/svg" viewBox="0 0 600 400">
  <g fill="#000" fill-rule="evenodd">
    <path d="M463.5 188.8c-54.4 6.5-109 15-162.5 24.5l69.4 39c32.4-15.2 63.4-28 93-38.7 12-4.3 24-8.4 36-12.2 33.6-10.7 65.7-19 96.4-24.8-32 2-64.2 4.7-96.5 8-12 1.4-24 2.7-35.8 4.2zm35.8-121.2c3-1 6.5 0 9 3 1.4 2 2 3.7 2 6.4-1 5.5-6 8.8-11 7.5-.4 0-.8-.2-1.2-.4-3.5-1.7-5.5-4.7-5.3-8.8.6-4 3.4-6.7 6.6-7.6zm0 19c.7.3 1.4.4 2.2.4 6 0 11-5 11-11s-5-11-11-11c-.8 0-1.5.2-2.2.3-5 1-8.8 5.5-8.8 10.8 0 5.3 4 9.8 8.8 10.7zm80.7 31c10.8-1.8 16.6-9.3 20-19.4v-11h-28.5c.5 9.3-2.6 16.4-13.6 20h-14.2V63.5h-28.2V164h28V128h14.8c9 4.6 12.7 11 13 20V164h28.7v-24c.8-7.3-10-21.7-20-22.5z"/>
    <path d="M499 71h2.2c.8 0 1.6.2 2.2.7.6.4 1 1 1 1.7s-.4 1.3-1 1.7c-.6.7-1.4 1-2.2 1H499v-5zm0 6.5h1.5l3.8 5h2.2l-4.2-5c1 0 2-.6 2.7-1.3 1-.7 1.4-1.7 1.4-2.8 0-1-.5-2-1.6-2.7-1-.8-2.3-1.2-3.6-1.2H497v13.2h2v-5.2zM463.5 108c11.5 0 20.7 7.5 20.7 17.2 0 9.4-9.2 17.2-20.6 17.2-11.4 0-20.6-7.8-20.6-17.2 0-9.7 9.2-17.3 20.5-17.3zm-.7 56h.7c14.7-.3 27.7-6.5 35.8-16 5.4-6.3 8.7-14.2 8.7-22.6 0-8.5-3.3-16.4-8.7-22.7-8-9.4-21-15.7-35.8-16h-.7c-25 0-45.3 17.4-45.3 38.7 0 21.2 20.4 38.5 45.3 38.5zM152 164h54v-24h-48.3c-16.8-6-17-22.8-.5-29.4H177L161.5 136l27.5-.2 17-26V87.2h-55.3c-44.2 11-45.7 68.3 1.3 76.6z"/>
    <path d="M368.7 164c59.2-6 49.3-70.7 7-76.7h-25v23.3h18c16.6 4.8 16.8 20 .6 29.4h-24.6V63.4H316l.2 100.5h52.5zm-103.4 85L226 236.3l-11.6-3.7c-56 18.8-100 46.2-136 79.4l76.3 10.3c18.5-21.8 42.2-40.3 71.3-55.8 12.2-6.3 25.3-12.3 39.3-17.6zM105 188l.2-31c0-16.3-11.8-22.7-18.3-25.5 30.2-10.7 32.4-63-14.5-68.3l-71 .2V164h27.8V87l31.7.5c23 1 24 31.5.7 32l-24.6.2.3 21.4H59c10.8 2 16.7 8.2 17.4 18.6v28.7l28.6-.3zm121 101.8c-15 10.8-28.3 23-39.3 37 .3-.7 19.8 2 39.3 4.7 19.7 2.7 39.3 5.3 39.3 5 2.7-22.8 48-52 70.3-65L290.2 255c-24 9.8-45.5 21.2-64.2 34.8zm27-126h54V140h-48.3c-16.8-6-17-22.8-.5-29.4H278L262.5 136l27.5-.2 17-26V87.2h-55.3c-11.5 3-20 8.8-25.7 16.2-10.4 13.8-10.7 32.5 0 45.7 5.8 7 14.7 12.6 27 14.7zM580.5 199v-8.5h2.2l1.3 6 1.4-6h2.2v8.5h-1.3v-6.7l-1.5 6.7h-1.4l-1.4-6.7v6.7h-1.4zm-4.5 0v-7h-2v-1.5h5.6v1.4h-2v7H576z"/>
    <path d="M42.7 208.5c.5.5 181.5-33 180.3-33-1 0 216.7 131.8 216.7 131.8-150.7-69.5-286.8-110-397-98.8z"/>
  </g>
</svg>
