<svg xmlns="http://www.w3.org/2000/svg" viewBox="0 0 600 400">
  <g fill="#000" fill-rule="evenodd">
    <path d="M67.3 158.2l-2.7-1-2.5-1-4.4-1.3-4.5-.6H51l-2.2.4-2 .6-1.7.8-1.5 1-1 1.5-.6 1.5-.3 1.6v1.7l.7 1.5 1 1.5 1 1.3 3.4 2.4 3.8 2.5 3.8 2.8 3.5 3.3 3 3.5 2.6 4 2 4 1.7 4.6 1 5 .8 5.5.2 5.4-.6 5-1.3 5-2 4.7-2.8 4.7-3.5 4.4-2 2-2.2 1.7-2.3 1.5-2.6 1.3-2.8 1-3 1-3 .6-3.3.4-3.7.5-4 .2-4.5.2h-8.2l-3.2-.2H12l-2-.2H8l-.3-.6-1-29.2v-.8c0-.4 0-.5.5-.5l1.2.2 1 .2 1.2.2h1l1 .3h1l1 .2h.8l.8.2H22.3l.7-.2h.5l.7-.2h.6l.6-.3.6-.2.6-.2.6-.2.6-.2.5-.2.6-.3.4-.3.5-.4.4-.4.5-.4.4-.4.4-.4.5-.5.4-.5.3-.6.4-.5.3-.7.2-.7.2-.6.2-.7v-.7l.2-.7v-3l-.2-.7-.2-.8-.3-.7-.4-.7-.4-.6-.5-.7-.4-.7-.5-.7-.5-.7-.6-.6-.5-.7-.6-.6-.5-.7-.5-.6-.5-.7-.6-.6-.5-.5-.7-.6-.6-.8-.6-.6-.5-.6-.6-.7-.7-.6-.6-.7-.7-.6-.6-.7-.7-.7-.7-.8-.7-.8-.7-.8-.4-.4-1-1.3-1.5-1.7-1-1.3-1-1.2-1-1-.6-1-.5-1-.5-.7-.5-.7-.4-.7-.3-.8-.4-.8-.4-.8-.4-.8-.4-1-.3-.8-.4-1-.3-.8-.3-1-.2-.8-.2-1-.2-.8v-1l-.2-.8v-.8l-.2-1v-3.3l.2-.7v-.7l.2-.8.2-.7v-.6l.3-.8.2-.7.2-.7.3-.8.3-.7.4-.8.4-.8.4-1 .4-.8.4-1 .5-1 .5-.8.6-1 .6-.8.6-1 .7-.7.6-.8 1-1 .6-.6.8-.7.8-.6 1-.6.8-.6 1-.5.8-.6 1-.5 1-.5 1.2-.4 1-.4 1.2-.5 1-.4 1.3-.2 1.2-.3 1.2-.3 1-.3 1.3-.3 1.2-.2h1.3l1.2-.2h1.2l1.2-.2H49l1 .2h1.3l1 .2h1.3l1 .2H56l1 .2H58l1 .2h1.2l1 .3h1l1 .2 1.2.2h1l.7.2 2 .6c0-.4-.2-.5-.5-.5l.4.6v29.2c0 .4-.3.6-.7.4zM522.7 243l.5-1.5v-.8l-27.6-73-.8-2.3c-1.3-3.4 0-5.3 3.7-5.3h25.1c2 0 3 .8 3.7 2.6l1 2.2 9 24 .6 1.8c.5 1.4 2 1.3 2.3 0l.8-2.3 7.8-24 .5-1.6c.7-2 1.8-2.7 4-2.7h24c3.6 0 5 1.8 3.8 5l-.6 2-33 102.2-.8 2.2c-.6 2-1.6 2.7-3.7 2.7l-2.3.2H518c-3.5 0-5-1.8-3.8-5l.7-2.3 7.7-24zM307 161.4c0-.2 0-.2-.2-.3v.3zm-148.5 2.7l.2 60.6v2.4l.5 2 .5 1.8.6 1.6.7 1.6.7 1.3.7 1.3.8 1 1 1 1 1.3 1.2 1 1.2 1 1.3.7 1 .6 1.3.6 2.3 1 1 .3 1.2.3 1 .3 1 .2 1.6.3 1.5.2h6.7l2-.4 1.8-.4 1.7-.5 1.6-.6 1.4-.7 1.3-.6 1.3-.7 1.6-1 1.4-1 1.2-.6.6-.2c.7-.5 1.3 0 1.3 0l.3.2.7.6c.2.2.2.4.2.6v.8c.3 2.2 1.5 3 4 3h23c2.7 0 4-1 4-4v-2.2l-.3-73.2v-1.7c0-2.8-1.2-4-4-4H210c-2.7 0-3.8 1.2-3.8 4V209.5c0 4.6-3.7 8.4-8.4 8.4-4.6 0-8.4-4-8.4-8.5V164c0-2.6-1.3-3.8-4-3.8h-22.9c-2.8 0-4 1.2-4 4zM206 241l-.8-1 .8 1zm283.4 0v-63l-.6-2-.5-1.8-.6-1.7-.7-1.5-.7-1.4-.8-1.2-.8-1-.8-1-1.3-1.3-1.2-1-1.2-.8-1.2-.7-1-.7-1.3-.5-2.3-1-1-.4-1.2-.5-1-.3-1-.2-1.6-.3-1.6-.2h-1.4l-1.5-.2h-2l-2 .3-1.8.2-1.8.4-1.8.5-1.6.5-1.5.6-1.3.7-1.2.7-1.6 1-1.4.8-1.3.7-.5.3c-.7.5-1.3 0-1.3 0l-.4-.2-.7-.6c-.2-.2-.3-.4-.3-.7v-.8c-.3-2-1.4-3-4-3H415c-3 0-4 1-4 4v77.2c0 2.7 1.2 3.8 4 3.8h22.8c2.8 0 4-1.2 4-4v-45.1c0-4.6 3.7-8.4 8.3-8.4 2.4 0 4.5 1 6 2.4 1.7 1.6 2.6 3.7 2.6 6V241c0 2.8 1.2 4 4 4h22.9c2.8 0 4-1.2 4-4zM442 164.2l.8 1-1-1zm-135 22.3v-25l-.2-.3-1.8-.6-2-.5-1.8-.4-1.8-.3-2.6-.4-2.5-.3h-5l-2.4.2-2.5.2-2.4.3-2 .4-2.3.4-2 .6-2 .6-2 .7-1.7.7-1.7.7-1.6 1-1.5.7-1.5 1-1.4 1-1 .6-1 .8-2 1.6-1.7 1.8-1.6 1.8-1.6 2-1.5 2-1.4 2-1.2 2.3-.8 1.5-.6 1.5-.7 1.6-.4 1-.4 1.3-.7 2.5-.6 2.5-.4 2.5-.2 2.5v7.4l.3 2.4.5 2.4.5 2.2.5 2.2.5 1.4.4 1.3 1 2.6 1 2.5 1 1.8.8 1.6 1 1.4 1 1.5 1.2 1.4 1.3 1.4 1.3 1.3 1.5 1.5 1.7 1.3 1.8 1.4 2 1.3 2 1.2 2.3 1.2 2.3 1 2.5 1 2.7 1 1.8.5 2 .5 2 .4 2 .3 2.2.2h5l2.8-.2 3-.4 3.2-.4 3.5-.7 2.8-.6 1-.3c.2 0 .3 0 .3-.2v-26.7c0-.2 0-.2-.3-.2l-1.4.3-1 .3-2.4.3-4.2.6h-6.6l-2.6-.5-2.3-.6-2-1-2-.8-1.5-1.2-1.4-1.2-2.3-2.8-1.4-3-.7-3.5V201l.4-2 .7-1.8 1-2 1-1.6 1.5-1.7 1.8-1.7 2-1.3 2.6-1 2.8-1 3.4-.4h3.6l3.7.2 3.7 1 3.4 1.2.4-.2v-2.3zM580.8 238v4.7h2.3c1 0 1.7 0 2.2-.2.4 0 .8-.4 1-.8.2-.4.4-.8.4-1.3 0-.4-.2-1-.4-1.2-.2-.4-.6-.7-1-.8-.4-.2-1-.3-2-.3h-2.4zm-1.4-1.2h2.7c1.7 0 2.7 0 3.2.2.8 0 1.5.6 2 1.2s.8 1.3.8 2.2c0 .8-.2 1.4-.5 2-.4.5-1 1-1.6 1.2-.7.3-1.6.5-2.8.5l5 6.4h-1.7l-5-6.3h-.7v6.4h-1.4v-13.6zm-464-11.4c-5 0-9-4-9-9s4-9 9-9 9 4 9 9-4 9-9 9zm36 14.2l-.3-56-.6-4-.7-3-.8-2.3-1-2-1-1.6-1-1.3-2.4-2.2-2.5-2-2.6-1.4-3-1-3-.8-3.3-.4-3.5-.4-4-.2-4-.2h-9.9l-3.2.3-3.8.3-4.5.5-2.5.2-1.7.2-1.4.2-.2.8-.3 1.6-3 15.4v1c0 .3 0 .5.5.4h1l2-.5 2.6-.3 4.8-.6 4-.2h6l2.4.2 2.2.2 2 .3 1.5.4 1.4.5 1.3.7 1 1 1 1.2.4 1.4.3 1.7-.3 2-.5.3h-.5l-1.3-.2-2.7-.3-4-.3h-6.4l-2.7.4-2.7.6-4.7 1.7-4 2.3-3.7 2.7-3 3-2.2 2.7L81 205l-1.3 2.7-1 2.6-.6 2.7-.2 3.2v3.7l.8 4L80 228l2 4.3 2.8 4 3.3 3.6 2 1.5 1.8 1.3 4 2 4.2 1 4 .7h4l3.7-.5 3.5-1 3-1.5 2.7-1.4 1-.5 1-.4h1.7l.4.5.5.7v.2l.3.7c.7 2 1.8 2.7 3.8 2.7h18c2.8 0 4-1.2 4-4v-2zm206.3-20.2c-9 0-16-7-16-16 0-8.7 7-15.8 16-15.8s16 7 16 16c0 8.7-7 15.8-16 15.8zm0-60.3c-24.8 0-45 20-45 44.5s20.2 44.4 45 44.4c24.7 0 44.8-20 44.8-44.5s-20-44.4-44.8-44.4z"/>
    <path d="M582.7 251.5c-2.6 0-5.2-1-7-3-2-1.7-3-4.3-3-7 0-2.5 1-5 3-7 1.8-1.7 4.4-2.8 7-2.8 5.5 0 10 4.4 10 10 0 5.4-4.5 9.8-10 9.8m0-21.5c-6.4 0-11.7 5.2-11.7 11.6 0 6.4 5.3 11.6 11.7 11.6 6.5 0 11.8-5.2 11.8-11.6 0-6.4-5.3-11.6-11.8-11.6"/>
  </g>
</svg>
