<?xml version="1.0" encoding="utf-8"?>
<!-- Generator: Adobe Illustrator 17.0.0, SVG Export Plug-In . SVG Version: 6.00 Build 0)  -->
<!DOCTYPE svg PUBLIC "-//W3C//DTD SVG 1.1//EN" "http://www.w3.org/Graphics/SVG/1.1/DTD/svg11.dtd">
<svg version="1.1" id="Ebene_1" xmlns="http://www.w3.org/2000/svg" xmlns:xlink="http://www.w3.org/1999/xlink" x="0px" y="0px"
	 width="841.89px" height="595.28px" viewBox="0 0 841.89 595.28" enable-background="new 0 0 841.89 595.28" xml:space="preserve">
<g id="MQhQrg_1_">
	<g>
		<g>
			<path fill-rule="evenodd" clip-rule="evenodd" d="M732.508,342.017c-13.827-0.141-25.046,1.128-29.35,1.697
				c1.447,1.942,2.986,3.811,4.611,5.601c5.759,0.051,21.991,0.741,52.143,5.864c25.063,4.258,39.027,4.926,45.785,4.861
				c6.837-4.842,12.822-10.812,17.682-17.637c-6.838,1.223-19.553,2.878-28.687,2.786
				C782.756,345.067,750.282,342.197,732.508,342.017z"/>
			<path fill-rule="evenodd" clip-rule="evenodd" d="M709.242,350.884c13.52,14.045,32.513,22.787,53.547,22.787
				c14.521,0,28.067-4.168,39.513-11.368c-7.476-0.181-20.972-1.238-43.2-5.199C732.231,352.315,716.425,351.148,709.242,350.884z"
				/>
			<path fill-rule="evenodd" clip-rule="evenodd" d="M834.588,280.091l-39.819,10.163l4.282-8.098
				c9.409-1.477,21.423-4.489,32.693-10.578c-0.864-2.144-1.824-4.239-2.877-6.28c-9.667,4.802-18.264,7.012-25.091,7.923
				l6.217-11.756l16.065-1.125c-1.404-2.273-2.927-4.465-4.56-6.566H802.93l7.31-11.63c-1.514-1.257-3.08-2.454-4.692-3.591
				l-14.928,20.786l-4.346-8.616l0.724-3.044l14.152-11.999c-1.544-0.932-3.124-1.81-4.739-2.63l-14.991,8.051l-7.707-15.275
				c-2.211-0.326-4.456-0.554-6.726-0.681l8.185,21.045l-2.394,2.165l-12.116-23.299c-0.711,0.02-1.42,0.052-2.128,0.091
				l-9.29,19.558l-9.634-15.99c-3.131,1.027-6.173,2.251-9.105,3.667l-0.442,12.888l-13.725-3.939
				c-2.841,2.275-5.508,4.756-7.984,7.419l16.578,20.344l-4.617,0.337l-14.896-17.339c-1.807,2.192-3.488,4.491-5.038,6.882
				l9.251,11.232l-15.706,1.14c-3.519,8.643-5.461,18.094-5.461,28c0,16.12,5.135,31.042,13.856,43.221
				c3.505-0.528,15.327-2.119,30.164-2.119c17.775,0,50.279,2.54,62.214,2.54c10.107,0,24.58-2.186,30.628-3.471
				c7.456-11.584,11.783-25.372,11.783-40.171C837.112,292.688,836.231,286.234,834.588,280.091z M797.548,262.337l4.048-0.283
				l-7.057,11.727c-1.595-0.028-2.945-0.122-4.036-0.234L797.548,262.337z M788.791,283.328l-6.012,9.985l-5.601,1.43l7.035-11.191
				C785.365,283.523,786.915,283.459,788.791,283.328z M781.776,263.177l2.138,5.5l-12.153,16.923l-0.503-15.107L781.776,263.177z
				 M748.208,267.664l1.885,13.196l-5.324-5.266L748.208,267.664z M740.724,248.413l-3.187-0.398l-0.31-5.752L740.724,248.413z
				 M744.336,257.499l-5.755,9.819l-0.642-11.869L744.336,257.499z M717.927,249.035l11.13,3.567l0.558,7.998L717.927,249.035z
				 M721.391,276.35l10.749-0.354l3.732,3.172l-10.496,8.466l-10.021-3.79L721.391,276.35z M709.604,276.74l-2.857,3.85
				l-9.134-3.454L709.604,276.74z M698.774,284.41l3.792,1.815l-5.245,7.071C697.605,290.27,698.095,287.304,698.774,284.41z
				 M756.264,329.839c-18.264-2.689-36.476-5.234-54.534-5.756c-3.038-7.582-4.714-15.859-4.714-24.527
				c0-0.184,0.01-0.367,0.011-0.551l3.547,0.138h2.455l7.382-9.162l8.532,4.084l-4.071,5.637l9.588,0.373l18.182-15.151l4.594,5.127
				l-18.309,10.199l15.249,0.596l9.467-3.641l3.517,3.924L756.264,329.839z M759.912,281.877l-1.165-4.977l4.368-1.959l0.136,7.131
				L759.912,281.877z M763.67,264.276l-6.266,4.558l-3.589-14.1l6.434-14.841l5.619,11.843L763.67,264.276z M819.775,336.772
				c-15.845-0.395-31.743-2.344-47.624-4.609c-3.344-14.191-1.744-28.617-1.744-28.617l24.318-6.05l3.446,5.034l6.433-0.338
				l-1.683-6.736l9.507-2.365c1.654,2.365,5.953,8.071,10.459,10.457l5.079-2.371c0,0-4.707-5.814-6.108-10.432l8.155-2.029
				c0.567,3.531,0.866,7.152,0.866,10.842C830.878,313.297,826.795,326.084,819.775,336.772z"/>
		</g>
		<g>
			<path fill-rule="evenodd" clip-rule="evenodd" d="M337.705,337.403c0,7.111-3.386,6.771-6.771,6.771
				c-2.549,0-10.258,0.462-15.665-12.819c-0.153-1.593-0.06-5.731,4.832-6.818c0,0,23.362-9.141,26.071-10.495
				c2.709-1.353,3.046-6.095,3.046-9.819c0-3.724-5.755-32.164-27.762-32.164c-22.008,0-30.473,23.7-30.473,49.431
				c0,25.732,12.19,45.37,34.195,45.37c22.01,0,25.394-13.881,25.394-22.685C350.571,334.017,337.705,331.647,337.705,337.403z
				 M310.957,313.363c-3.386-25.9,2.369-28.777,5.417-28.777c3.047,0,9.82,9.479,9.82,18.62c0,9.142-7.788,11.852-11.513,11.852
				C313.152,315.057,311.155,314.877,310.957,313.363z"/>
			<path fill-rule="evenodd" clip-rule="evenodd" d="M109.842,357.38c-3.386-2.032-4.064-4.402-4.064-6.773c0,0,0-63.652,0-69.746
				c0-6.095-2.708-8.126-4.401-8.126c-4.064,0-23.023,8.126-27.425,10.497c-4.401,2.369-1.016,5.417,1.015,6.433
				c2.032,1.016,3.725,2.031,3.725,7.448s0,51.125,0,53.494c0,2.371-0.678,4.74-4.064,6.773c-0.711,0.426-1.136,0.985-1.332,1.602
				c-0.297-0.748-0.932-1.518-1.969-2.279c-5.079-3.724-4.401-5.417-4.401-9.819s0-91.077,0-96.156c0-5.078-0.34-9.141,2.369-9.141
				c6.771,0,10.495,12.865,14.221,21.669c3.724,8.802,15.914,4.062,14.559-2.032c-1.354-6.094-4.064-23.362-5.418-29.456
				c-1.353-6.095-3.724-10.157-6.095-10.157c-2.37,0-6.433,3.724-6.433,3.724l-28.651,0.509l-28.652-0.509
				c0,0-4.064-3.724-6.433-3.724c-2.371,0-4.74,4.062-6.095,10.157c-1.354,6.095-4.064,23.363-5.417,29.456
				c-1.354,6.095,10.834,10.835,14.559,2.032c3.724-8.804,7.449-21.669,14.219-21.669c2.709,0,2.371,4.062,2.371,9.141
				c0,5.079,0,91.754,0,96.156s0.677,6.095-4.402,9.819c-5.078,3.724-0.677,7.719,7.449,7.719H63.88
				c5.027,0,8.625-1.529,9.439-3.576c0.549,1.841,2.505,3.576,4.696,3.576h28.442C110.181,364.421,113.228,359.41,109.842,357.38z"
				/>
			<path fill-rule="evenodd" clip-rule="evenodd" d="M442.685,357.38c-3.386-2.032-4.063-4.402-4.063-6.773c0,0,0-109.307,0-115.401
				c0-6.095-2.709-8.126-4.402-8.126c-4.062,0-23.022,8.126-27.424,10.495c-4.401,2.371-1.016,5.417,1.016,6.433
				c2.031,1.016,3.724,2.031,3.724,7.449c0,1.73,0,12.239,0,25.816c-1.768-2.449-4.774-4.03-9.501-4.03
				c-16.013,0-13.425,11.591-22.305,14.088c0-3.226,0-5.532,0-6.471c0-6.095-2.708-8.126-4.401-8.126
				c-4.062,0-23.023,8.126-27.425,10.497c-4.401,2.369-1.015,5.417,1.016,6.433c2.031,1.016,3.724,2.031,3.724,7.448
				s0,51.125,0,53.494c0,2.371-0.677,4.74-4.062,6.773c-3.386,2.03-0.34,7.041,3.386,7.041h28.44c3.724,0,6.771-5.012,3.386-7.041
				c-3.386-2.032-4.064-4.402-4.064-6.773c0,0,0-17.33,0-34.771c2.108-6.851,7.316-20.585,15.194-20.585
				c3.386,0,2.371,9.141,10.157,9.141c1.792,0,4.554-3.88,6.454-8.899c0,25.912,0,53.82,0,55.115c0,2.371-0.677,4.74-4.062,6.773
				c-3.387,2.03-0.34,7.041,3.386,7.041h28.44C443.023,364.421,446.07,359.41,442.685,357.38z"/>
			<path fill-rule="evenodd" clip-rule="evenodd" d="M586.94,357.38c-3.387-2.032-4.062-4.402-4.062-6.773
				c0-4.74,1.459-76.856-25.288-76.856c-8.46,0-9.902,5.574-14.158,8.017c0-0.373,0-0.683,0-0.908c0-6.095-2.708-8.126-4.401-8.126
				c-4.064,0-23.023,8.126-27.425,10.497c-4.402,2.369-1.015,5.417,1.016,6.433c2.031,1.016,3.724,2.031,3.724,7.448
				s0,51.125,0,53.494c0,2.277-0.631,4.551-3.68,6.527c-0.455-2.883-2.892-6.187-5.335-6.187c-2.709,0-3.386-2.371-3.386-5.418
				c0-3.047,0-4.402-2.709-37.921c-2.708-33.519-16.929-32.502-31.826-32.502c-14.897,0-27.764,7.11-27.764,18.623
				c0,11.51,7.449,12.525,13.205,12.525c5.757,0,10.157-1.353,10.157-8.803c0-7.448-4.74-9.817-4.74-9.817s2.371-0.678,7.788-0.678
				c5.418,0,8.464,8.464,8.464,15.912c0,6.095-10.834,6.433-14.897,8.466c-14.086,7.044-20.992,18.283-20.992,32.164
				c0,13.882,8.127,20.924,10.835,20.924c2.709,0,18.283,0,23.7,0c5.418,0,7.788-2.979,9.481-2.979s2.709,2.979,4.74,2.979
				c2.033,0,5.08,0,14.897,0c4.559,0,6.708-0.716,7.703-1.787c0.905,1.036,2.242,1.787,3.682,1.787h28.44
				c3.724,0,6.771-5.012,3.386-7.041c-3.386-2.032-4.064-4.402-4.064-6.773c0,0,0-31.897,0-52.694c0-2.09,2.68-5.202,5.693-5.202
				c7.11,0,9.511,50.449,9.511,57.896c0,2.371-0.677,4.74-4.062,6.773c-3.386,2.03-0.338,7.041,3.386,7.041h25.594
				C587.279,364.421,590.326,359.41,586.94,357.38z M477.876,345.867c0,3.047-0.677,6.772-4.74,6.772
				c-4.062,0-8.126-1.354-8.126-14.899c0-13.543,5.757-18.96,12.866-18.96C477.876,318.781,477.876,342.819,477.876,345.867z"/>
			<path fill-rule="evenodd" clip-rule="evenodd" d="M262.88,271.38c-7.404,0-6.135,3.304-11.512,4.752c0-22.501,0-41.328,0-43.35
				c0-6.095-2.709-8.126-4.402-8.126c-4.064,0-21.266,8.126-25.668,10.496c-4.402,2.371-1.016,7.111,1.015,8.127
				c2.033,1.015,1.968,2.03,1.968,7.448c0,4.589,0,90.024,0,101.234c0,2.851,0.168,5.048,0.447,6.749
				c-0.228-0.509-0.623-0.968-1.23-1.331c-3.386-2.032-4.062-4.402-4.062-6.773c0-4.74,1.459-76.856-25.288-76.856
				c-9.719,0-10.179,7.353-16.281,8.867c-2.6-5.433-7.245-9.883-15.206-9.883c-13.197,0-11.522,7.7-18.262,9.459
				c0-0.576,0-1.028,0-1.333c0-6.095-2.709-8.126-4.402-8.126c-4.064,0-23.023,8.126-27.425,10.497
				c-4.402,2.369-1.016,5.417,1.016,6.433c2.031,1.016,3.724,2.031,3.724,7.448s0,51.125,0,53.494c0,2.371-0.677,4.74-4.064,6.773
				c-3.386,2.03-0.338,7.041,3.387,7.041h28.44c3.724,0,6.771-5.012,3.386-7.041c-3.386-2.032-4.062-4.402-4.062-6.773
				c0,0,0-29.831,0-50.604c0-5.26,3.796-8.646,6.75-8.646c3.046,0,5.46,2.031,5.46,8.125c0,5.418,0,48.756,0,51.125
				c0,2.371-0.678,4.74-4.064,6.773c-3.386,2.03-0.338,7.041,3.386,7.041h25.594c3.725,0,6.771-5.012,3.387-7.041
				c-3.387-2.032-4.064-4.402-4.064-6.773c0,0-0.003-54.234-0.007-54.438c0-1.807,2.586-3.458,4.842-3.458
				c7.109,0,9.513,50.449,9.513,57.896c0,2.371-0.678,4.74-4.064,6.773c-3.386,2.03-0.338,7.041,3.384,7.041h25.595
				c2.559,0,4.798-2.364,4.85-4.504c1.171,5.083,3.579,4.504,5.075,4.504c2.031,0,3.944,1.169,9.48-8.058
				c1.016-1.693,3.384-0.677,6.432,2.708c3.047,3.386,4.74,7.449,17.607,7.449c12.866,0,26.748-2.031,26.748-48.417
				C290.305,281.539,270.328,271.38,262.88,271.38z M258.816,343.836c-6.771,0-7.786-20.652-7.786-27.764
				c0-7.11,2.37-30.471,8.464-30.471c6.093,0,8.802,20.314,8.802,30.471C268.296,326.229,265.587,343.836,258.816,343.836z"/>
			<path fill-rule="evenodd" clip-rule="evenodd" d="M655.332,357.38c-3.386-2.032-4.062-4.402-4.062-6.773c0,0,0-106.26,0-112.353
				c0-6.095-2.708-8.126-4.401-8.126c-2.822,0-12.018,5.562-19.342,8.75c-3.226,1.404-6.738,1.02-8.083,1.745
				c-4.402,2.369-1.016,5.417,1.015,6.433c2.033,1.016,3.725,2.031,3.725,7.449c0,1.802,0,12.782,0,26.719
				c-1.866-1.727-6.354-5.104-12.909-5.104c-8.802,0-26.747,16.59-26.747,51.464c0,14.559,4.402,25.056,7.109,31.488
				c2.709,6.433,5.757,5.35,10.159,5.35c3.362,0,50.151,0,50.151,0C655.672,364.421,658.719,359.41,655.332,357.38z
				 M617.708,349.592c-3.047,0-9.819-7.788-9.819-27.425c0-19.638,5.079-30.471,7.449-30.471c3.724,0,10.157,10.834,10.157,30.133
				C625.496,341.127,620.756,349.592,617.708,349.592z"/>
			<path fill-rule="evenodd" clip-rule="evenodd" d="M595.363,250.694c3.766,0,6.982-2.925,6.982-6.928
				c0-3.967-3.216-6.892-6.982-6.892c-3.803,0-7.02,2.925-7.02,6.892C588.343,247.769,591.56,250.694,595.363,250.694z
				 M595.363,238.025c3.125,0,5.593,2.469,5.593,5.741c0,3.327-2.468,5.776-5.593,5.776c-3.163,0-5.632-2.45-5.632-5.776
				C589.731,240.494,592.2,238.025,595.363,238.025z"/>
			<path fill-rule="evenodd" clip-rule="evenodd" d="M593.899,244.315h1.39l2.102,3.454h1.353l-2.266-3.509
				c1.169-0.146,2.065-0.768,2.065-2.195c0-1.571-0.933-2.266-2.815-2.266h-3.034v7.97h1.205V244.315z M593.899,240.823h1.646
				c0.84,0,1.736,0.183,1.736,1.169c0,1.224-0.913,1.298-1.937,1.298h-1.445V240.823z"/>
		</g>
	</g>
</g>
</svg>
