<?xml version="1.0" encoding="utf-8"?>
<!-- Generator: Adobe Illustrator 17.0.0, SVG Export Plug-In . SVG Version: 6.00 Build 0)  -->
<!DOCTYPE svg PUBLIC "-//W3C//DTD SVG 1.1//EN" "http://www.w3.org/Graphics/SVG/1.1/DTD/svg11.dtd">
<svg version="1.1" id="Ebene_1" xmlns="http://www.w3.org/2000/svg" xmlns:xlink="http://www.w3.org/1999/xlink" x="0px" y="0px"
	 width="841.89px" height="595.28px" viewBox="0 0 841.89 595.28" enable-background="new 0 0 841.89 595.28" xml:space="preserve">
<g id="layer1" transform="translate(394.28571,-235.21933)">
	<path id="path69" d="M418.901,390.416c-5.742,13.467,5.41,34.809-10.659,38.992l-499.184-1.673l-52.964,1.1l-7.496,11.462
		l-62.477,237.013l-8.653,3.931l-84.322-1.479l-7.92-16.447c-23.473-96.632-49.881-191.66-72.471-288.177
		c21.605-2.831,46.775-4.47,68.712,0.149c22.866,70.592,33.261,145.722,53.182,218.812l2.613,2.12l6.166-6.969l53.766-210.823
		l6.017-5.043l566.933,0.917C386.385,379.367,420.299,362.725,418.901,390.416"/>
	<path id="path73" d="M419.681,481.455c1.41,15.863-13.685,30.407-24.7,39.668c-20.551-9.123-45.915-27.943-71.176-14.338
		c-7.897,5.926-13.444,16.562-7.679,25.33c34.981,26.167,97.4,11.909,110.558,64.987c6.499,22.843,1.295,52.058-16.803,68.242
		c-29.158,27.198-71.44,32.952-112.197,21.227c-17.88-7.977-37.869-13.341-53.353-27.668c5.949-16.241,16.424-30.132,27.668-42.259
		c22.728,5.628,42.534,24.058,70.615,20.768c9.284-0.149,20.963-6.568,25.548-16.493c3.312-39.542-47.187-24.264-70.42-35.519
		c-23.634-5.662-42.304-25.823-46.958-48.425c-4.573-23.634,1.971-46.293,20.012-61.491
		C313.043,446.589,379.496,451.151,419.681,481.455"/>
	<path id="path77" d="M226.726,469.97c1.685,67.898,1.398,138.409-0.527,205.941c-21.88,5.639-46.511,0.756-69.686,0.711
		c-18.717-31.187-30.178-61.01-51.646-92.437c-2.716-1.158-3.943,2.464-5.845,3.175l-1.765,87.188
		c-14.613,8-35.267,0.734-52.219,3.943l-3.725-11.496C42,603.061,39.49,533.238,44.659,470.589
		c18.934-3.977,40.299-4.08,61.548-3.244l6.155,4.229l47.611,85.595l6.613-1.272c-1.639-25.227,3.851-57.17,2.464-85.194
		C185.418,463.724,209.258,467.54,226.726,469.97"/>
	<path id="path81" d="M-63.825,581.193c-1.444-16.837-8.378-33.101-15.427-47.68c-9.547,13.123-9.204,31.714-13.33,47.141
		C-84.777,587.818-72.444,584.288-63.825,581.193 M-13.337,521.387l38.178,154.524c-16.31,5.994-37.307,1.479-55.863,1.754
		c-9.158-12.826-3.393-37.376-24.482-40.081c-19.611,1.192-45.021-6.476-58.316,9.066l-9.146,31.668
		c-17.8,2.281-39.21,2.418-55.531-1.845c17.891-69.95,38.511-138.719,59.99-207.477c26.488-5.204,60.654-3.255,88.105-0.034
		L-13.337,521.387z"/>
	<path id="path85" d="M428.38,445.763c-0.424-0.195-1.032-0.298-1.834-0.298h-0.734v3.45h1.192c0.745,0.023,1.307-0.138,1.708-0.39
		c0.413-0.332,0.619-0.814,0.619-1.456C429.343,446.417,428.999,445.97,428.38,445.763 M422.787,455.15v-11.656
		c0.745-0.023,1.811,0,3.267,0c1.444,0.023,2.258,0,2.384,0c0.963,0.069,1.731,0.264,2.327,0.63c1.043,0.539,1.547,1.49,1.547,2.751
		c0,0.997-0.252,1.708-0.802,2.109c-0.539,0.447-1.203,0.711-2.006,0.768c0.745,0.16,1.284,0.413,1.662,0.699
		c0.688,0.585,1.077,1.479,1.066,2.659l0.011,1.02c-0.011,0.115,0.034,0.229-0.011,0.367c0,0.092,0.046,0.229,0.046,0.321
		l0.08,0.378l-2.888-0.057c-0.092-0.332-0.16-0.894-0.183-1.616c-0.011-0.676-0.08-1.135-0.206-1.41
		c-0.16-0.424-0.458-0.722-0.848-0.883c-0.252-0.069-0.607-0.149-1.089-0.172h-0.665l-0.665-0.023v4.126L422.787,455.15z
		 M421.297,443.253c-1.685,1.673-2.522,3.702-2.522,6.086c0,2.384,0.86,4.47,2.567,6.189c1.708,1.696,3.725,2.533,6.098,2.499
		c2.395,0.046,4.47-0.848,6.189-2.544c1.65-1.708,2.51-3.782,2.51-6.143c0-2.384-0.86-4.413-2.533-6.075
		c-1.754-1.777-3.771-2.648-6.166-2.648C425.068,440.617,423.004,441.488,421.297,443.253 M434.833,456.881
		c-2.075,1.971-4.527,2.991-7.393,2.969c-2.98-0.034-5.479-1.032-7.519-3.049c-1.994-2.029-2.98-4.562-3.026-7.507
		c0-3.072,1.112-5.639,3.312-7.656c2.063-1.948,4.459-2.877,7.255-2.911c2.888,0,5.421,1.032,7.416,3.083
		c2.086,2.109,3.106,4.573,3.106,7.484C437.996,452.296,436.965,454.852,434.833,456.881"/>
</g>
</svg>
