<?xml version="1.0" encoding="utf-8"?>
<!-- Generator: Adobe Illustrator 22.1.0, SVG Export Plug-In . SVG Version: 6.00 Build 0)  -->
<svg version="1.1" id="Calque_1" xmlns="http://www.w3.org/2000/svg" xmlns:xlink="http://www.w3.org/1999/xlink" x="0px" y="0px"
	 viewBox="0 0 240 243.7" style="enable-background:new 0 0 240 243.7;" xml:space="preserve">
<g>
	<path d="M145.4,128.9l50.2-88.7h-20.7c-4.8,0-16.4-1-24.4,13.2L119.6,108L89.5,59.7H48.9l44.3,69.2H145.4z"/>
	<polygon points="63.7,186.7 53,165.6 44.4,165.6 63.7,203.6 83,165.6 74.3,165.6 	"/>
	<polygon points="90.2,201.9 116.3,201.9 116.3,194.3 97.9,194.3 97.9,187.6 109.5,187.6 109.5,180 97.9,180 97.9,173.2 
		116.3,173.2 116.3,165.5 90.2,165.5 	"/>
	<path d="M155.5,201.9h8.6l3.1-6.1h15.1l3.1,6.1h8.6l-19.3-38L155.5,201.9z M178.8,188.1h-8l4-7L178.8,188.1z"/>
	<path d="M141.1,188.4c0,2.8-0.2,5.4-3.2,6.6c-2,0.8-4.2,0-4.2,0c-2.2-1-3.1-2.8-3.2-5.1h-7.6c0.2,6.7,4.2,11.9,10.8,12.9
		c2.3,0.4,4.2,0,4.2,0c3.8-0.6,7.3-2.9,9.2-6.4c1.5-2.8,1.7-5.3,1.7-8.4v-22.4h-7.7V188.4z"/>
</g>
</svg>
