<?xml version="1.0" standalone="no"?>
<!DOCTYPE svg PUBLIC "-//W3C//DTD SVG 20010904//EN"
 "http://www.w3.org/TR/2001/REC-SVG-20010904/DTD/svg10.dtd">
<svg version="1.0" xmlns="http://www.w3.org/2000/svg"
 width="260.000000pt" height="260.000000pt" viewBox="0 0 260.000000 260.000000"
 preserveAspectRatio="xMidYMid meet">
<metadata>
Created by potrace 1.11, written by Peter Selinger 2001-2013
</metadata>
<g transform="translate(0.000000,260.000000) scale(0.100000,-0.100000)"
fill="#000000" stroke="none">
<path d="M1412 2168 c-26 -26 -13 -54 41 -88 122 -79 214 -203 224 -305 l6
-55 119 0 119 0 -57 -107 c-32 -60 -61 -110 -64 -113 -13 -10 -110 -198 -110
-212 0 -17 36 -34 173 -82 54 -19 101 -37 104 -39 2 -3 -10 -79 -28 -169 -30
-147 -37 -167 -66 -198 l-31 -35 -161 -3 c-140 -3 -161 -6 -165 -20 -6 -20
-56 -291 -56 -304 0 -12 372 -10 450 2 185 30 312 104 421 248 88 116 146 315
136 462 -11 169 -88 270 -255 336 -22 9 -22 10 42 121 35 62 73 125 84 140 40
57 191 322 197 346 7 25 -8 66 -29 79 -6 4 -252 8 -546 8 -404 0 -539 -3 -548
-12z"/>
<path d="M867 2053 c-9 -11 -30 -91 -50 -198 -19 -99 -37 -187 -39 -195 -2
-13 24 -16 182 -20 l185 -5 19 -38 c43 -90 -7 -150 -209 -248 -77 -37 -169
-78 -205 -92 l-65 -24 -66 -364 c-36 -200 -69 -381 -73 -402 l-7 -37 424 0
423 0 28 153 c16 83 31 157 33 164 4 9 -67 13 -290 15 -274 3 -296 4 -316 22
-27 25 -29 104 -3 134 9 10 64 39 122 63 58 23 119 51 135 61 40 24 52 23 96
-8 48 -33 83 -29 87 9 2 16 -3 36 -10 45 -9 12 -3 10 25 -6 42 -24 77 -28 95
-10 19 19 14 44 -10 62 -13 9 0 4 29 -11 41 -22 56 -26 70 -17 27 16 28 59 3
77 -20 14 -19 15 26 43 74 47 115 151 130 329 7 91 -11 192 -47 269 -34 73
-120 160 -192 196 -86 42 -143 50 -342 50 -151 0 -174 -2 -188 -17z"/>
<path d="M176 1945 c-8 -9 -18 -30 -21 -48 -3 -18 -19 -99 -34 -182 l-28 -150
93 -3 93 -3 -6 -32 c-3 -18 -10 -40 -15 -49 -4 -9 -7 -21 -6 -25 1 -4 -1 -17
-5 -28 -3 -11 -45 -227 -92 -480 -47 -253 -88 -472 -91 -487 l-6 -28 201 0
c182 0 200 2 205 18 2 9 14 69 26 132 12 63 28 138 35 165 8 28 33 149 55 270
74 398 171 910 176 928 5 16 -13 17 -280 17 -242 0 -287 -2 -300 -15z"/>
</g>
</svg>
